<?xml version="1.0" standalone="no"?>
<!DOCTYPE svg PUBLIC "-//W3C//DTD SVG 1.1//EN" "http://www.w3.org/Graphics/SVG/1.1/DTD/svg11.dtd" >
<svg xmlns="http://www.w3.org/2000/svg">
<metadata>Generated by IcoMoon</metadata>
<defs>
<font id="icomoon" horiz-adv-x="1024">
<font-face units-per-em="1024" ascent="960" descent="-64" />
<missing-glyph horiz-adv-x="1024" />
<glyph unicode="&#x20;" horiz-adv-x="512" d="" />
<glyph unicode="&#xe900;" glyph-name="info03" horiz-adv-x="1143" d="M205.063 726.865l25.273-61.083h45.030l23.132 130.068h-45.771l-8.232-46.347-19.346 46.347h-53.344l-23.132-130.068h45.606zM296.276 665.782h103.231l5.845 32.517h-55.156l3.622 19.51h50.875l5.763 34.164h-50.793l1.976 11.36h55.156l5.845 32.517h-103.314zM493.436 677.966c0.741 1.235 1.317 2.47 1.729 3.54 1.811 3.046 2.634 5.927 3.951 8.973 1.729 3.622 3.458 7.162 5.022 10.949l6.092 13.089 5.104-48.734h49.228l58.448 130.068h-49.228l-4.281-9.714-2.223-5.186-1.976-4.775c-0.412-1.235-1.153-2.47-1.564-3.704-2.881-7.409-5.845-14.736-9.138-22.145-0.494-1.646-1.235-4.363-2.223-6.009l-3.787 51.533h-46.512c-5.104-13.007-13.007-28.401-18.193-41.243-1.893-3.458-2.964-6.833-4.857-10.29l-2.058 51.533h-50.546l12.431-130.068h49.393l5.186 12.184zM644.826 787.289c-13.501-8.15-21.404-19.51-23.544-31.941-3.293-18.769 4.034-31.035 26.178-39.185h-0.165c3.54-1.646 8.726-2.305 13.418-3.211l1.729-0.329 3.128-0.412 4.857-1.235 4.692-1.235h-0.165c3.622 0 6.503-2.799 5.845-6.586-0.659-3.622-2.552-5.104-4.692-5.845-1.235-0.741-2.881-1.235-5.269-1.399-2.881-0.165-4.363-0.329-5.845-0.329-5.927 0-12.101 1.070-18.769 3.787-5.927 2.305-12.184 7.162-18.605 12.019h-15.147l-6.421-36.386c14.9-6.339 30.953-11.525 52.768-11.525 19.675 0 35.481 3.787 48.487 12.266 13.418 8.644 21.239 19.51 23.626 32.599 3.375 18.934-5.022 29.883-25.026 37.127-6.915 2.717-13.912 3.458-20.992 5.022-0.165 0.165-0.494-0.165-0.988-0.165h-0.329l-2.799 1.070c-4.61 1.070-7.821 2.634-9.385 4.034-0.576 0.576-0.823 1.976-0.494 3.951 0.412 2.305 2.058 4.61 4.198 5.269 3.869 1.646 7.244 2.223 11.36 2.223 5.763 0 11.278-1.893 17.205-4.198 4.857-2.14 9.879-4.198 14.983-10.702h15.147l6.256 35.975c-14.406 6.339-32.599 10.62-49.558 10.62-17.946-0.082-33.093-3.869-45.689-11.278zM1102.041 802.354c-22.392 0-40.667-18.193-40.667-40.585v-688.292c0-22.556-19.099-56.226-60.177-56.226h-9.714c-20.087 0-42.313 8.314-59.848 22.145-16.053 12.595-23.050 26.261-23.050 34.081v886.523h-908.585v-920.522c0-24.038 11.854-49.969 32.599-70.714s46.429-32.846 70.467-32.846h898.13c39.761 0 76.312 15.559 102.984 43.466 24.45 25.52 38.527 59.93 38.527 94.011v688.374c0 22.392-18.275 40.585-40.667 40.585zM103.396 17.252c-7.327 1.646-20.498 15.23-22.145 22.556v838.941h746.082v-805.189c0-18.934 5.598-38.362 16.382-56.226h-740.319zM991.483 118.425c15.888 0 29.224 12.925 29.224 28.813v583.908c0 15.888-13.336 28.813-29.224 28.813s-29.224-12.925-29.224-28.813v-583.908c0-15.888 13.336-28.813 29.224-28.813zM159.293 547.157h199.959v-123.565h-199.959v123.565zM374.811 379.714h-200.042c-14.9 0-27.002-11.854-27.002-26.837 0-14.9 12.101-26.837 27.002-26.837h200.042c14.9 0 27.002 11.854 27.002 26.837 0.082 14.983-12.019 26.837-27.002 26.837zM374.811 298.463h-200.042c-14.9 0-27.002-11.854-27.002-26.837 0-14.9 12.101-26.837 27.002-26.837h200.042c14.9 0 27.002 11.854 27.002 26.837 0.082 14.9-12.019 26.837-27.002 26.837zM374.811 217.211h-200.042c-14.9 0-27.002-11.854-27.002-26.837 0-14.9 12.101-26.837 27.002-26.837h200.042c14.9 0 27.002 11.854 27.002 26.837 0.082 14.9-12.019 26.837-27.002 26.837zM374.811 135.877h-200.042c-14.9 0-27.002-11.854-27.002-26.837 0-14.9 12.101-26.837 27.002-26.837h200.042c14.9 0 27.002 11.854 27.002 26.837 0.082 14.983-12.019 26.837-27.002 26.837zM706.403 379.714h-200.042c-14.9 0-27.002-11.854-27.002-26.837 0-14.9 12.101-26.837 27.002-26.837h200.042c14.9 0 27.002 11.854 27.002 26.837 0.082 14.983-12.019 26.837-27.002 26.837zM706.403 465.905h-200.042c-14.9 0-27.002-11.854-27.002-26.837 0-14.9 12.101-26.837 27.002-26.837h200.042c14.9 0 27.002 11.854 27.002 26.837 0.082 14.9-12.019 26.837-27.002 26.837zM706.403 547.157h-200.042c-14.9 0-27.002-11.854-27.002-26.837 0-14.9 12.101-26.837 27.002-26.837h200.042c14.9 0 27.002 11.854 27.002 26.837 0.082 14.9-12.019 26.837-27.002 26.837zM706.403 298.463h-200.042c-14.9 0-27.002-11.854-27.002-26.837 0-14.9 12.101-26.837 27.002-26.837h200.042c14.9 0 27.002 11.854 27.002 26.837 0.082 14.9-12.019 26.837-27.002 26.837zM706.403 217.211h-200.042c-14.9 0-27.002-11.854-27.002-26.837 0-14.9 12.101-26.837 27.002-26.837h200.042c14.9 0 27.002 11.854 27.002 26.837 0.082 14.9-12.019 26.837-27.002 26.837zM706.403 135.877h-200.042c-14.9 0-27.002-11.854-27.002-26.837 0-14.9 12.101-26.837 27.002-26.837h200.042c14.9 0 27.002 11.854 27.002 26.837 0.082 14.983-12.019 26.837-27.002 26.837z" />
<glyph unicode="&#xe901;" glyph-name="info04" horiz-adv-x="466" d="M297.395 659.911h1.441c10.274 0 18.607 11.214 18.607 25.373 0 11.59-5.576 21.113-13.219 24.308h-62.586v46.611c15.85 3.884 28.129 18.481 28.129 35.835 0 20.361-16.539 36.9-36.9 36.9s-37.088-16.539-37.088-36.9c0-17.354 12.091-31.951 27.942-35.835v-46.611h-62.774c-7.643-3.195-13.219-12.718-13.219-24.308 0-14.159 8.332-25.373 18.607-25.373h2.694l-133.004-682.562c-1.942-10.024-0.689-20.236 3.32-28.631 3.947-8.395 10.337-12.718 17.041-12.718h353.968c6.703 0 12.968 4.26 16.978 12.655 3.947 8.395 5.2 19.045 3.195 29.007l-133.129 682.249zM347.577 176.197l-87.458 56.76 67.786 43.98 19.672-100.74zM284.114 361.889h-99.863l49.931 59.141 49.931-59.141zM197.595 500.343h73.174l-36.587-43.353-36.587 43.353zM305.101 296.42l-69.415-45.045-69.415 45.045h138.83zM324.522 160.033h-177.61l88.836 57.637 88.774-57.637zM329.284 93.5l-88.899-30.447-88.899 30.447h177.798zM310.74 365.084l-61.020 72.297 38.091 45.17 22.93-117.467zM213.070 659.911h40.534l18.106-95.101h-76.745l18.106 95.101zM179.177 484.117l39.469-46.799-63.213-74.866 23.744 121.665zM139.269 279.568l71.984-46.674-92.783-60.206 20.8 106.879zM100.489 80.907l96.104-32.953-109.887-37.652 13.783 70.606zM145.91 2.596l94.475 32.39 94.475-32.39h-188.95zM284.176 47.954l82.885 28.443 11.903-60.895-94.788 32.452zM317.067 760.463c3.446-2.631 7.455-3.884 11.465-3.884 5.701 0 11.277 2.569 15.036 7.393 19.171 25.060 29.32 53.44 29.32 82.070 0 25.31-7.581 49.743-22.554 72.548-5.701 8.708-17.479 11.152-26.187 5.45s-11.152-17.479-5.45-26.187c10.838-16.539 16.351-33.956 16.351-51.811 0-20.549-7.267-40.409-21.551-59.078-6.328-8.332-4.761-20.173 3.571-26.501zM433.532 951.48c-5.701 8.708-17.479 11.152-26.187 5.45s-11.152-17.479-5.45-26.187c17.229-26.25 25.999-54.066 25.999-82.572 0-32.828-11.465-64.466-34.144-94.036-6.328-8.27-4.761-20.173 3.508-26.501 3.446-2.631 7.455-3.884 11.465-3.884 5.701 0 11.277 2.569 15.036 7.393 13.47 17.542 23.869 36.211 30.886 55.444 7.33 20.048 11.026 40.722 11.026 61.584 0 35.961-10.776 70.731-32.139 103.308zM137.139 756.516c4.010 0 8.082 1.253 11.465 3.884 8.27 6.328 9.836 18.231 3.508 26.501-14.284 18.669-21.551 38.529-21.551 59.078 0 17.855 5.513 35.271 16.351 51.811 5.701 8.708 3.32 20.424-5.45 26.187-8.708 5.701-20.424 3.32-26.187-5.45-14.973-22.804-22.554-47.237-22.554-72.548 0-28.631 10.149-57.011 29.32-82.070 3.822-4.824 9.46-7.393 15.098-7.393zM56.948 723.625c4.010 0 8.082 1.253 11.465 3.884 8.27 6.328 9.836 18.231 3.508 26.501-22.616 29.57-34.144 61.208-34.144 94.036 0 28.505 8.708 56.322 25.999 82.572 5.701 8.708 3.32 20.424-5.45 26.187-8.708 5.826-20.424 3.383-26.125-5.325-21.363-32.578-32.202-67.348-32.202-103.371 0-20.862 3.696-41.536 11.026-61.584 7.017-19.233 17.416-37.903 30.886-55.444 3.696-4.887 9.335-7.455 15.036-7.455z" />
<glyph unicode="&#xe902;" glyph-name="gizacircle02" d="M917.244 448.16l91.97 90.010c27.416 25.954 14.632 72.078-21.328 80.678l-125.3 31.98 35.322 124.030c9.982 35.676-23.658 69.326-59.322 59.342l-123.988-35.334-31.968 125.342c-8.46 35.398-55.1 48.344-80.65 21.336l-89.98-92.684-89.978 92.682c-25.26 26.702-72.094 14.468-80.65-21.336l-31.968-125.342-123.99 35.334c-35.674 9.988-69.302-23.674-59.322-59.342l35.322-124.030-125.3-31.98c-35.976-8.602-48.734-54.734-21.33-80.676l91.97-90.010-91.97-90.008c-27.416-25.954-14.632-72.078 21.328-80.678l125.3-31.98-35.322-124.030c-9.982-35.676 23.658-69.326 59.322-59.342l123.988 35.334 31.968-125.342c8.878-37.15 55.392-48.036 80.65-21.336l89.982 92.002 89.978-92.002c25-26.976 71.974-14.972 80.65 21.336l31.968 125.342 123.988-35.334c35.672-9.988 69.302 23.674 59.322 59.342l-35.322 124.030 125.3 31.98c35.974 8.604 48.732 54.734 21.328 80.678l-91.968 90.008z" />
<glyph unicode="&#xe903;" glyph-name="new01" d="M1024 448.006l-126.596 103.264 58.002 152.73-161.282 26.144-26.13 161.268-152.714-58.016-103.28 126.598-103.278-126.6-152.702 58.004-26.144-161.268-161.268-26.13 57.99-152.728-126.598-103.252 126.598-103.266-57.99-152.74 161.268-26.144 26.132-161.268 152.714 58.002 103.278-126.598 103.278 126.598 152.728-58.002 26.116 161.268 161.282 26.144-58.002 152.74 126.598 103.252zM753.268 206.726l-22.35-137.91-130.6 49.606-88.318-108.262-88.316 108.26-130.6-49.592-22.35 137.896-137.91 22.364 49.592 130.624-108.26 88.292 108.26 88.316-49.592 130.6 137.91 22.35 22.35 137.912 130.6-49.606 88.316 108.25 88.316-108.248 130.6 49.606 22.35-137.912 137.922-22.35-49.606-130.6 108.262-88.316-108.262-88.292 49.606-130.624-137.92-22.364zM387.482 486.836l-25.344-4.984c-1.336-0.274-2.066-1.334-1.806-2.692l18.86-95.944-1.098-0.222-72.69 85.36c-1.202 1.4-2.668 1.82-4.238 1.504l-26.914-5.296c-1.336-0.26-2.066-1.32-1.78-2.68l29.086-147.94c0.262-1.348 1.334-2.080 2.668-1.818l25.346 4.984c1.334 0.274 2.066 1.348 1.806 2.694l-18.834 95.718 1.124 0.222 72.846-85.1c1.202-1.4 2.46-1.844 4.262-1.504l26.68 5.258c1.334 0.262 2.066 1.334 1.778 2.694l-29.084 147.94c-0.262 1.36-1.334 2.066-2.668 1.806zM543.27 388.722l-65.704-12.92c-0.89-0.184-1.438 0.17-1.596 1.072l-6.226 31.61c-0.184 0.89 0.184 1.426 1.072 1.608l54.718 10.764c1.334 0.262 2.066 1.32 1.806 2.668l-4.682 23.764c-0.262 1.334-1.334 2.066-2.668 1.804l-54.72-10.764c-0.888-0.17-1.438 0.196-1.622 1.086l-5.936 30.264c-0.184 0.9 0.182 1.438 1.072 1.608l65.704 12.92c1.334 0.262 2.066 1.334 1.778 2.68l-4.708 23.974c-0.262 1.36-1.336 2.078-2.67 1.816l-97.746-19.224c-1.36-0.262-2.066-1.336-1.804-2.694l29.086-147.942c0.288-1.348 1.334-2.066 2.694-1.804l97.746 19.226c1.334 0.26 2.066 1.334 1.778 2.68l-4.708 23.986c-0.258 1.348-1.33 2.080-2.664 1.818zM720.454 552.306l-28.694-5.636c-1.568-0.302-2.328-1.164-2.248-2.786l-2.25-99.84-0.472-0.092-45.696 90.408c-0.732 1.282-1.804 1.988-3.138 1.726l-19.514-3.832c-1.544-0.314-2.276-1.372-2.46-2.824l-7.192-100.82-0.444-0.092-40.804 91.39c-0.47 1.322-1.544 2.028-3.112 1.714l-28.928-5.676c-1.57-0.314-1.83-1.294-1.334-2.602l68.528-140.186c0.732-1.256 1.804-1.988 3.14-1.726l22.416 4.42c1.568 0.3 2.3 1.386 2.484 2.812l8.030 100.060 0.444 0.092 45.094-89.612c0.706-1.256 1.778-1.988 3.348-1.674l22.416 4.408c1.57 0.3 2.51 1.424 2.486 2.824l10.122 155.658c-0.052 1.402-0.652 2.198-2.222 1.886z" />
<glyph unicode="&#xe904;" glyph-name="info02" d="M874.030 810.044c-92.494 92.584-220.792 149.984-362.030 149.956-141.238 0.028-269.538-57.372-362.044-149.956-92.568-92.492-149.986-220.806-149.956-362.044-0.030-141.224 57.388-269.524 149.956-362.030 92.506-92.598 220.806-149.986 362.044-149.97 141.238-0.016 269.536 57.372 362.030 149.97 92.598 92.506 150 220.806 149.97 362.030 0.028 141.238-57.372 269.552-149.97 362.044zM807.12 152.896c-75.702-75.596-179.732-122.224-295.12-122.24-115.388 0.016-219.418 46.642-295.12 122.24-75.582 75.672-122.208 179.7-122.238 295.104 0.028 115.404 46.656 219.432 122.238 295.104 75.702 75.598 179.732 122.21 295.12 122.238 115.388-0.028 219.418-46.64 295.12-122.238 75.582-75.672 122.208-179.702 122.238-295.104-0.030-115.404-46.656-219.432-122.238-295.104zM503.388 571.344c42.762 0 77.464 34.686 77.464 77.448 0 42.792-34.702 77.448-77.464 77.448-42.76 0-77.448-34.656-77.448-77.448 0-42.764 34.688-77.448 77.448-77.448zM598.328 234.388h-10.524c-10.774 0-19.522 8.716-19.522 19.492v272.658c0 3.58-1.88 6.924-4.94 8.76-3.060 1.866-6.88 1.954-10.046 0.284l-133.088-73.972c-38.716-19.358-20.136-42.478-5.716-41.88 14.404 0.568 57.358 4.82 57.358 4.82v-170.672c0-10.776-8.746-19.492-19.522-19.492h-20.672c-5.372 0-9.76-4.388-9.76-9.76v-42.568c0-5.374 4.388-9.762 9.76-9.762h166.672c5.388 0 9.762 4.388 9.762 9.762v42.568c0 5.374-4.374 9.762-9.762 9.762z" />
<glyph unicode="&#xe905;" glyph-name="info01" d="M294.094 294.624c-6.876-14.718-16.468-24.062-26.532-30.032-4.75-2.844-9.656-4.812-14.344-6.156l-16.188 59.844h-115l40.094-202.5c2.438-12.344 13.282-21.282 25.906-21.282h75.032c8.25 0 16 3.844 21 10.376 5.032 6.532 6.688 15 4.532 22.938l-28.062 103.626c2.156 0.594 4.344 1.282 6.532 2.094 14.688 5.376 29.876 15.406 41.75 31.406 8.656 11.562 15.376 26.218 19.156 43.906-8.844 1.688-18.062 3.218-27.594 4.562-1.594-7.062-3.72-13.312-6.282-18.782zM621.688 801.5c-21.126 0-55.156-36.032-69.844-50.718-12.75-12.75-113.218-112.718-368.032-112.718v-298.064c254.812 0 355.282-99.968 368.032-112.75 14.688-14.656 48.718-50.688 69.844-50.688 21.094 0 38.218 17.126 38.218 38.218v548.502c0 21.092-17.124 38.218-38.218 38.218zM149.032 638.062c-82.314 0-149.032-66.718-149.032-149.030s66.718-149.032 149.032-149.032v298.062zM690.75 544.968v-111.876c30.876 0 55.938 25.032 55.938 55.938s-25.062 55.938-55.938 55.938zM873.438 507.532h150.562v-29.218h-150.562v29.218zM988.218 704.624l-15.686 24.626-137-87.312 15.75-24.656zM835.532 331.874l137-87.342 15.686 24.656-136.936 87.312z" />
<glyph unicode="&#xe906;" glyph-name="order01" d="M977.53 708.312l-80.178 66.086-2.994 61.796h-205.25c5.464-15.032 9.166-30.882 10.632-47.412h149.46l1.82-37.644 47.056-38.784h-229.094v59.714c-0.014 86.72-70.284 156.974-156.974 157.004-86.722-0.016-156.99-70.284-156.99-157.004 0-2.872 0-27.58 0-59.714h-230.114l45.668 38.6 3.348 37.828h150.338c1.45 16.53 5.156 32.38 10.618 47.412h-204.356l-5.448-61.626-78.618-66.44-0.632-10.094-45.822-731.106h1024l-46.47 741.384zM391.44 772.068c0.016 33.368 13.474 63.354 35.312 85.238 21.87 21.854 51.904 35.328 85.254 35.328 33.336 0 63.37-13.474 85.224-35.328 21.854-21.884 35.312-51.872 35.312-85.238v-59.714h-241.102c0 32.132 0 56.842 0 59.714zM50.466 14.34l41.78 666.406h262.772c0-53.122 0-112.85 0-130.644-15.772-6.992-26.808-22.702-26.808-41.114 0-24.848 20.156-44.988 45.020-44.988 24.846 0 45.004 20.14 45.004 44.988 0 18.396-11.034 34.122-26.792 41.114 0 17.78 0 77.508 0 130.644h241.104v-130.66c-15.742-6.992-26.762-22.704-26.762-41.1 0-24.848 20.124-44.988 44.972-44.988 24.88 0 45.020 20.14 45.020 44.988 0 18.396-11.018 34.122-26.792 41.114v130.644h262.772l41.778-666.406h-923.068zM573.386 836.194h-122.758l-1.528-1.25c-12.764-12.794-21.096-28.784-24.4-46.162h174.6c-3.288 17.378-11.638 33.382-24.432 46.192l-1.482 1.22z" />
<glyph unicode="&#xe907;" glyph-name="review01" d="M1007.112 647.998l-37.138 37.122c-22.516 22.532-59.036 22.514-81.552 0l-34.74-34.758 118.692-118.692 34.738 34.738c22.516 22.536 22.516 59.056 0 81.59zM528.164 324.842v-118.69h118.692l293.146 293.144-118.69 118.692zM242.222 675.388h335.232v-55.872h-335.232v55.872zM242.222 470.524h335.232v-55.872h-335.232v55.872zM242.222 265.66h204.864v-55.872h-204.864v55.872zM745.178 50.684c0-8.564-6.984-15.532-15.532-15.548h-639.618c-8.548 0.016-15.496 6.984-15.532 15.548v794.628c0.036 8.568 6.984 15.532 15.532 15.552h639.618c8.548-0.018 15.532-6.984 15.532-15.552v-224.45l74.496 74.496v149.954c-0.036 49.744-40.266 90.010-90.028 90.048h-639.618c-49.724-0.038-89.99-40.304-90.028-90.048v-794.628c0.038-49.742 40.304-90.010 90.028-90.044h639.618c49.762 0.036 89.992 40.302 90.028 90.044v249.278l-74.496-74.496v-174.782z" />
<glyph unicode="&#xe908;" glyph-name="info05" horiz-adv-x="1270" d="M1270.15 621.883c-87.947-62.819-184.738-85.333-276.102-76.89-74.679 6.835-145.74 34.174-208.258 75.986 4.925 72.367-2.312 142.021-48.346 206.75-49.853 70.558-130.764 108.652-211.574 124.231-243.939 46.938-337.011-123.628-364.551-193.784l-143.026 13.167 109.757-101.314-128.050-40.908 110.863-41.008c-196.196-870.219 988.821-618.239 988.821-618.239-77.695-0.905-155.791 13.167-219.314 62.216-65.734 50.657-99.405 125.236-114.28 205.142 111.366 4.322 210.569 41.109 292.083 100.008 96.289 69.352 168.254 169.36 211.976 284.645zM349.073 797.977c-9.347-28.344-29.249-47.24-44.426-42.214s-19.901 31.962-10.554 60.306c9.347 28.344 29.148 47.24 44.325 42.214 15.278-5.026 20.002-32.063 10.654-60.306z" />
<glyph unicode="&#xe909;" glyph-name="info06" horiz-adv-x="596" d="M285.349 212.738h25.359c105.781 0 191.338 93.299 191.338 208.639v330.221c-0.079 115.261-85.636 208.402-191.417 208.402h-25.359c-105.702 0-191.417-93.141-191.417-208.402v-330.142c0-115.34 85.715-208.718 191.496-208.718zM551.342 584.749v-179.251c0-130.113-106.097-237.158-236.526-237.158h-34.128c-63.042 0-122.45 25.122-167.006 69.678s-69.204 104.438-69.204 167.48v179.251h-44.477v-179.251c0-37.841 7.426-74.655 22.041-109.257 14.141-33.417 34.365-63.437 60.119-89.191s56.090-45.978 89.507-60.119c25.043-10.586 50.481-17.38 78.447-20.382v-100.488c-85.557-4.977-147.809-22.989-147.809-44.319 0-25.28 87.295-45.741 195.13-45.741s195.209 20.461 195.209 45.741c0 21.33-63.2 39.263-147.098 44.319v100.488c139.909 15.326 250.193 134.616 250.193 278.95v179.251h-44.398z" />
<glyph unicode="&#xe90a;" glyph-name="info07" horiz-adv-x="1465" d="M839.549 855.213c-6.348 15.378-23.962 22.799-39.34 16.451s-22.799-23.962-16.451-39.34l306.762-747.905c6.348-15.378 23.962-22.799 39.34-16.451s22.799 23.962 16.451 39.34l-306.762 747.905zM58.116 153.264c-6.348 15.378-23.962 22.799-39.34 16.451s-22.799-23.962-16.451-39.34l38.893-94.863c6.348-15.378 23.962-22.799 39.34-16.451s22.799 23.962 16.451 39.34l-38.893 94.863zM771.42 794.683l-711.248-630.69 46.314-112.923 348.963 18.508 4.56-90.482c1.252-25.303 25.929-44.615 54.986-43.095l165.228 8.404c1.073 0.089 2.146 0.089 3.219 0.268 27.717 2.861 48.46 24.051 47.208 48.281l-4.649 91.018 329.651 17.524-284.231 693.187zM258.839 219.337c-4.739-4.202-10.55-6.259-16.451-6.259-6.795 0-13.68 2.772-18.508 8.315-9.030 10.193-8.136 25.929 2.056 34.959l408.956 362.642c10.193 9.030 25.839 8.136 34.959-2.056 9.030-10.193 8.136-25.839-2.056-34.959l-408.956-362.642zM679.061-11.785c-0.268 0-0.626-0.089-0.983-0.089l-165.228-8.404c-4.917-0.268-8.136 1.52-9.12 2.503l-4.56 89.767 183.288 9.746 4.56-90.124c-0.894-0.983-3.487-2.861-7.957-3.398zM1377.612 670.852c-11.623 25.392-41.575 36.568-66.967 25.034l-154.32-70.365c-25.392-11.623-36.658-41.575-25.034-66.967s41.575-36.568 66.967-25.034l154.32 70.365c25.392 11.623 36.658 41.575 25.034 66.967zM1081.132 703.218c26.197-9.746 55.255 3.487 65.090 29.684l59.368 158.88c9.746 26.197-3.487 55.255-29.684 65.090-26.197 9.746-55.255-3.487-65.090-29.684l-59.368-158.88c-9.746-26.197 3.576-55.344 29.684-65.090zM1431.883 395.293l-158.88 59.368c-26.197 9.746-55.255-3.487-65.090-29.684-9.746-26.197 3.487-55.255 29.684-65.090l158.88-59.368c26.197-9.746 55.255 3.487 65.090 29.684 9.746 26.197-3.487 55.344-29.684 65.090z" />
<glyph unicode="&#xe90b;" glyph-name="ranking_b03" horiz-adv-x="4862" d="M513.432 960h3836.421v-771.102h-3836.421v771.102zM385.551 704.239h-385.551l127.881-383.642-127.881-384.596h575.463v125.018h-189.912zM4862.33 704.239h-383.642v-643.221h-191.821v-125.018h575.463l-127.881 384.596z" />
<glyph unicode="&#xe90c;" glyph-name="ranking_b04" horiz-adv-x="771" d="M164.194 308.834c90.495 86.689 64.081 320.44 15.094 459.89 208.607-38.936 409.667 21.338 585.615-13.791 10.051-201.060 10.051-361.948-12.589-457.452-278.966 64.115-437.316-30.121-588.12 11.354zM125.291 820.283h60.308v-852.226h-60.308v852.226zM155.445 960c-47.218 0-85.52-38.235-85.52-85.486 0-47.184 38.302-85.486 85.52-85.486s85.52 38.302 85.52 85.486c-0.033 47.251-38.302 85.486-85.52 85.486zM183.529 831.27l-28.117 14.793-28.117-14.793 5.376 31.289-22.674 22.14 31.356 4.541 14.059 28.418 14.059-28.418 31.39-4.541-22.741-22.14 5.41-31.289zM48.554 0.115c-21.372 0-64.115-64.115-42.743-64.115s277.864 0 299.236 0c21.372 0-21.372 64.115-42.743 64.115s-192.378 0-213.749 0z" />
<glyph unicode="&#xe90d;" glyph-name="ranking_b05" horiz-adv-x="898" d="M210.045 209.733c-18.732 10.74-22.228 43.458-38.712 57.194-7.493 6.244-18.232 9.241-29.221 12.238l-142.111-219.536 164.839 20.73 102.9-144.359 57.943 231.774c-16.734 8.741-29.721 30.72-46.704 36.964-20.48 7.493-50.451-5.744-68.933 4.995zM756.261 279.165c-10.989-2.997-21.729-5.994-29.221-12.238-16.484-13.737-19.98-46.455-38.712-57.194-18.482-10.74-48.453 2.498-68.933-4.995-16.983-6.244-29.971-27.973-46.704-36.964l57.943-231.774 102.9 144.109 164.839-20.73-142.111 219.785zM447.063 825.881c-134.119 0-243.262-109.143-243.262-243.262s109.143-243.262 243.262-243.262c134.119 0 243.262 109.143 243.262 243.262s-109.143 243.262-243.262 243.262zM799.719 520.429c3.746 20.98 29.971 40.211 29.971 62.189s-26.474 41.21-29.971 62.189c-3.746 21.479 14.486 48.702 6.993 68.683-7.493 20.48-38.962 29.471-49.701 47.953-10.74 18.732-2.997 50.451-16.983 66.935s-46.455 14.486-62.939 28.222c-16.484 13.737-19.98 46.455-38.712 57.194-18.482 10.74-48.453-2.498-68.933 4.995-19.98 7.243-34.466 36.714-55.945 40.46-20.98 3.746-44.457-18.981-66.435-18.981s-45.456 22.728-66.435 18.981c-21.479-3.746-35.965-33.218-55.945-40.46-20.48-7.493-50.451 5.744-68.933-4.995-18.981-10.49-22.478-42.958-38.962-56.944-16.484-13.737-49.202-11.739-62.939-28.222-13.986-16.484-6.244-48.203-16.983-66.935s-42.209-27.723-49.701-48.203c-7.243-19.98 10.989-47.204 6.993-68.683-3.746-20.98-29.971-40.211-29.971-62.189s26.474-41.21 29.971-62.189c3.746-21.479-14.486-48.702-6.993-68.683 7.493-20.48 38.962-29.471 49.701-48.203s2.997-50.451 16.983-66.935c13.986-16.484 46.455-14.486 63.188-28.222 16.484-13.737 19.98-46.455 38.712-57.194 18.482-10.74 48.453 2.498 68.933-4.995 19.98-7.243 34.466-36.714 55.945-40.46 20.98-3.746 44.457 18.981 66.435 18.981s45.705-22.478 66.435-18.981c21.479 3.746 35.965 33.218 55.945 40.46 20.48 7.493 50.451-5.744 68.933 4.995 18.732 10.74 22.228 43.458 38.712 57.194 16.484 13.986 49.202 11.739 62.939 28.222s6.244 48.203 16.983 66.935c10.74 18.482 42.209 27.723 49.701 48.203 7.493 19.98-10.74 47.204-6.993 68.683zM447.063 295.649c-158.096 0-286.97 128.624-286.97 286.97 0 158.096 128.624 286.97 286.97 286.97s286.97-128.624 286.97-286.97c0-158.345-128.874-286.97-286.97-286.97z" />
<glyph unicode="&#xe90e;" glyph-name="ranking_b06" horiz-adv-x="1061" d="M1046.859 369.55c-26.756-2.078-58.447-1.559-81.047-7.793 7.533 21.561 13.508 43.641 17.924 65.721 0 0.52 0.26 1.039 0.26 1.559 43.381-20.002 58.188 45.719 77.151 92.217-23.639-14.287-52.992-28.574-70.397-44.94 3.117 32.99 2.857 65.981-0.52 98.711 33.77 3.377 36.367 62.084 45.199 106.245-17.664-16.106-39.744-32.99-54.551-49.875-1.039 3.896-1.559 8.053-2.598 11.949-4.156 16.885-9.352 33.25-15.586 49.615 32.211 8.313 18.703 59.746 14.287 100.27-10.91-18.703-25.717-39.225-33.25-57.408-12.729 25.197-27.535 48.836-44.68 70.916 28.315 9.352 10.65 51.174 2.078 84.684-8.313-20.262-20.522-43.121-22.080-60.785-0.52 0.779-1.039 1.299-1.818 2.078-19.482 21.301-41.303 39.485-64.162 56.369 21.301 12.988-0.779 44.42-13.768 70.657-3.377-18.703-9.871-40.524-7.533-55.59-28.574 18.443-58.967 33.51-90.399 44.94 46.758-24.418 90.139-54.811 126.766-91.698-17.924 0.52-42.602-8.572-64.162-14.287 32.731-12.988 71.955-36.367 85.983-10.65 3.896-4.416 8.053-8.572 11.689-13.248 10.91-13.768 20.781-28.055 29.613-42.861-17.145 3.896-40.524 2.598-60.526 3.377 27.016-21.301 57.408-54.291 78.19-36.367 9.092-18.703 17.664-37.926 23.899-57.668-17.404 6.234-40.524 9.352-60.006 13.768 23.119-26.756 47.797-65.201 71.955-58.447 0.26-1.559 1.039-3.117 1.299-4.936 5.455-27.535 8.053-55.85 8.832-83.905-14.287 19.223-47.537 35.848-73.514 52.473 17.404-45.719 30.133-109.881 72.994-90.399-1.299-26.496-4.156-52.992-10.131-78.709-0.26-1.559-0.779-2.857-1.299-4.416-9.352 21.82-36.108 45.979-55.85 68.059 4.416-48.317-0.52-112.998 44.94-106.764-7.793-24.678-18.184-48.317-30.133-70.916-3.117 23.379-20.262 53.512-31.951 80.008-10.65-47.537-35.328-107.803 10.391-115.596-6.754-9.871-13.508-19.742-21.301-28.834-10.91-12.729-23.119-24.418-36.108-35.068 2.598 27.016-14.807 66.5-25.197 100.27-16.885-48.317-48.576-107.284-12.469-127.026-21.561-13.248-44.68-24.418-68.578-33.51 9.092 25.977-2.338 69.877-7.533 106.504-23.639-43.381-62.604-94.295-36.108-120.791-19.742-5.975-39.744-11.17-60.006-16.106 10.391 25.457 3.637 68.838 2.078 104.946-27.275-40.264-70.397-86.243-48.836-115.336-12.209-2.598-24.158-5.455-36.627-8.053-12.209 2.598-24.418 5.455-36.627 8.053 21.301 28.834-21.561 75.073-48.836 115.336-1.299-36.108-8.053-79.489 2.078-104.946-20.262 4.676-40.264 10.131-60.006 16.106 26.756 26.236-12.209 77.41-36.108 120.791-4.936-36.627-16.365-80.528-7.533-106.504-24.158 9.092-47.018 20.262-68.578 33.51 36.108 19.742 4.416 78.969-12.469 127.026-10.391-33.77-27.795-73.254-25.197-100.27-12.988 10.65-24.938 22.34-36.108 35.068-7.793 9.092-14.547 18.963-21.301 28.834 45.719 7.793 21.041 68.059 10.391 115.596-11.689-26.496-28.834-56.629-31.951-80.008-11.949 22.6-22.34 46.238-30.133 70.916 45.459-6.234 40.524 58.447 44.94 106.764-19.742-22.34-46.238-46.238-55.85-68.059-0.26 1.559-0.779 2.857-1.299 4.416-5.715 25.717-8.572 52.213-10.131 78.709 42.861-19.482 55.59 44.68 72.994 90.399-25.717-16.625-59.227-32.99-73.514-52.473 0.779 28.055 3.377 56.369 8.832 83.905 0.26 1.559 1.039 3.377 1.299 4.936 24.418-6.754 48.836 31.692 71.955 58.447-19.742-4.416-42.861-7.533-60.266-13.768 6.494 19.742 14.807 38.965 24.158 57.928 20.522-17.924 51.174 15.066 78.19 36.367-18.443-0.52-41.822 1.039-58.967-3.117 9.092 14.807 18.963 29.354 29.613 42.861 3.637 4.676 7.793 8.832 11.689 13.248 13.768-25.717 53.252-2.598 85.983 10.65-21.301 5.455-45.979 14.807-64.162 14.287 36.367 36.627 79.748 67.28 126.766 91.698-31.432-11.43-61.824-26.756-90.399-44.94 2.338 14.807-4.156 36.627-7.533 55.33-12.988-26.236-35.068-57.928-13.768-70.657-22.859-16.885-44.68-35.068-64.162-56.369-0.52-0.779-1.039-1.299-1.559-2.078-1.559 17.664-13.768 40.524-22.080 60.785-8.572-33.51-26.236-75.332 2.078-84.684-17.145-22.080-32.211-45.979-44.68-71.176-7.533 18.184-22.34 38.705-33.25 57.408-4.416-40.524-17.924-91.698 14.287-100.27-6.234-16.106-11.43-32.731-15.586-49.615-1.039-3.896-1.818-8.053-2.598-11.949-14.547 16.885-36.627 33.51-54.551 49.875 8.832-44.16 11.43-102.868 45.199-106.245-3.377-32.731-3.637-65.721-0.52-98.711-17.404 16.365-46.758 30.393-70.397 44.94 18.963-46.498 33.77-112.219 77.151-92.217 0-0.52 0.26-1.039 0.26-1.559 4.416-22.34 10.391-44.16 17.924-65.721-22.859 6.234-54.291 5.715-81.047 7.793 34.289-29.873 72.215-74.813 101.049-56.11 13.508-27.535 29.873-54.031 49.356-78.19-26.496 0-62.344-14.807-93.776-23.899 49.096-17.924 109.102-51.694 128.065-11.949 21.041-18.703 43.901-34.549 68.319-47.797-23.379-7.793-49.875-23.899-73.774-35.588 51.694-9.611 116.895-32.99 128.584 10.131 10.91-4.156 21.82-8.313 32.99-11.689 16.365-5.195 32.99-9.352 49.615-13.248-24.678-10.391-51.953-39.485-77.41-61.045 23.119 1.559 49.615 1.299 72.215 4.416-1.039-2.338-2.338-4.676-3.117-7.273-5.715-22.34-0.26-42.342 7.014-60.266 7.793-20.002 27.016-35.068 47.018-39.225 20.002-4.416 41.043-0.779 57.928 10.391 8.572 5.715 15.326 13.248 20.002 23.379 1.039 2.598 1.559 5.195 2.338 7.793 0.779-2.598 1.299-5.455 2.338-7.793 4.416-10.131 11.43-17.664 20.002-23.379 16.885-11.17 37.926-14.807 57.928-10.391 20.002 4.156 38.965 19.223 47.018 39.225 7.014 17.664 12.729 37.666 7.014 60.266-0.779 2.598-2.078 4.676-3.117 7.273 22.34-3.117 48.836-2.598 72.215-4.416-25.457 21.561-52.733 50.654-77.41 61.045 16.625 3.896 32.99 8.053 49.615 13.248 10.91 3.377 22.080 7.533 32.99 11.689 11.689-43.121 76.891-19.742 128.584-10.131-24.158 11.689-50.654 27.795-73.774 35.588 24.418 13.248 47.537 29.094 68.319 47.797 18.963-39.744 79.229-5.975 128.065 11.949-31.172 9.092-67.020 23.899-93.776 23.899 19.482 24.158 35.848 50.654 49.356 78.19 28.574-18.703 66.76 26.236 100.789 56.11zM453.293 90.821c-1.559-0.52-3.117-1.299-4.416-2.078 0 0.26 0 0.52 0 0.779-0.779 1.039-1.559 1.818-2.338 2.598 2.338-0.26 4.416-0.779 6.754-1.299zM634.090-13.605c-4.156-13.248-14.807-23.379-28.834-27.535-13.768-4.416-30.393-3.117-43.121 3.896-6.494 3.377-11.949 9.092-15.326 14.547-3.637 7.014-5.715 14.547-5.975 22.080-1.039 15.066 10.65 29.873 26.756 31.951 7.793 1.299 16.106-1.039 22.080-7.014 5.715-5.975 8.572-14.807 9.092-23.379 0.52 8.572-0.779 18.184-6.494 25.717-5.455 7.533-15.586 11.949-25.197 11.43-9.611-0.26-19.223-4.416-26.496-11.43-4.936-4.676-7.793-10.91-9.871-17.404-2.078 6.494-4.936 12.729-9.871 17.404-7.273 7.014-16.625 10.91-26.496 11.43-9.611 0.26-19.482-3.896-25.197-11.43s-7.014-16.885-6.494-25.717c0.52 8.572 3.377 17.404 9.092 23.379s14.287 8.053 22.080 7.014c16.106-2.078 27.535-16.885 26.756-31.951-0.26-7.533-2.338-15.066-5.975-22.080-3.377-5.715-8.832-11.17-15.326-14.547-12.988-7.273-29.354-8.313-43.121-3.896-14.027 4.156-24.678 14.287-28.834 27.535-4.936 14.547-7.014 30.912-2.857 42.602 3.896 11.689 14.287 20.522 28.574 27.016 14.027 6.494 30.133 10.91 46.498 14.807 10.391 2.078 20.781 4.156 31.432 5.975 10.391-2.078 21.041-3.896 31.432-5.975 16.365-3.637 32.471-8.053 46.498-14.807 14.027-6.494 24.678-15.326 28.574-27.016 3.637-11.689 1.559-28.055-3.377-42.602zM612.27 89.782c0-0.26 0-0.52 0-0.779-1.559 0.779-3.117 1.299-4.416 2.078 2.338 0.52 4.676 1.039 7.014 1.299-1.039-1.039-1.818-1.559-2.598-2.598z" />
<glyph unicode="&#xe90f;" glyph-name="ranking_b07" horiz-adv-x="1517" d="M1301.138 244.36c86.208 188.028 36.335 430.074 12.019 521.809 17.822 25.42 63.827 113.287-80.268 193.692 0 0-60.235-124.892 57.472-192.173 22.243-83.169 75.985-329.774-8.704-514.487-102.372-223.257-359.754-293.854-362.379-294.545l5.526-20.723c2.763 0.967 269.677 73.913 376.332 306.426zM1476.455 853.345c0 0-151.279-10.638-137.325-164.68 0 0.138 139.536-30.808 137.325 164.68zM1301.138 697.23c-62.308 141.608-199.909 77.643-199.909 77.643 92.84-172.14 199.909-77.643 199.909-77.643zM1363.722 534.485c0 0 139.536-30.808 137.325 164.68 0 0-151.279-10.638-137.325-164.68zM1125.82 620.555c92.84-172.14 199.909-77.643 199.909-77.643-62.446 141.608-199.909 77.643-199.909 77.643zM1349.906 384.173c0 0 132.904-52.499 161.502 141.056 0 0-151.141 13.263-161.502-141.056zM1128.445 506.577c64.518-184.574 185.265-108.037 185.265-108.037-39.374 149.621-185.265 108.037-185.265 108.037zM1229.712 101.923c0 0 90.767-110.385 209.718 44.9 0 0-125.582 84.965-209.718-44.9zM1187.713 138.672c38.269 149.897-109.418 184.436-109.418 184.436-33.157-192.863 109.418-184.436 109.418-184.436zM1101.366-6.528c0 0 64.242-127.655 214.416-2.349 0 0-103.892 110.523-214.416 2.349zM1068.348 38.372c70.321 137.878-66.176 203.916-66.176 203.916-74.742-180.568 66.176-203.916 66.176-203.916zM1313.295 251.13c0 0 102.649-99.471 203.225 68.248 0.138 0-134.286 70.321-203.225-68.248zM1130.931 407.521c10.776-195.212 147.963-155.147 147.963-155.147 3.73 154.733-147.963 155.147-147.963 155.147zM235.001 253.341c-84.689 184.574-30.947 431.456-8.704 514.487 117.708 67.419 57.472 192.173 57.472 192.173-144.095-80.406-98.090-168.272-80.268-193.692-24.315-91.734-74.189-333.781 12.019-521.809 106.655-232.514 373.569-305.597 376.332-306.288l5.526 20.723c-2.625 0.553-259.868 71.011-362.379 294.407zM177.528 688.803c13.954 154.042-137.325 164.542-137.325 164.542-2.21-195.488 137.325-164.542 137.325-164.542zM215.521 697.23c0 0 107.070-94.498 199.909 77.643 0 0-137.602 63.965-199.909-77.643zM152.937 534.485c13.954 154.042-137.325 164.68-137.325 164.68-2.21-195.488 137.325-164.68 137.325-164.68zM390.839 620.555c0 0-137.464 63.965-199.909-77.643 0 0 107.070-94.498 199.909 77.643zM166.752 384.173c-10.362 154.318-161.502 141.056-161.502 141.056 28.598-193.554 161.502-141.056 161.502-141.056zM388.214 506.577c0 0-145.891 41.584-185.265-108.037 0 0 120.609-76.538 185.265 108.037zM286.947 101.923c-84.136 129.865-209.718 44.9-209.718 44.9 118.951-155.147 209.718-44.9 209.718-44.9zM328.945 138.672c0 0 142.575-8.289 109.418 184.436 0-0.138-147.687-34.539-109.418-184.436zM200.876-8.876c150.174-125.306 214.416 2.349 214.416 2.349-110.523 108.175-214.416-2.349-214.416-2.349zM448.311 38.372c0 0 140.917 23.21 66.176 203.916 0 0.138-136.496-66.038-66.176-203.916zM203.225 251.13c-68.801 138.569-203.225 68.248-203.225 68.248 100.715-167.719 203.225-68.248 203.225-68.248zM385.589 407.521c0 0-151.693-0.553-147.963-155.147 0 0 137.187-40.065 147.963 155.147z" />
<glyph unicode="&#xe910;" glyph-name="ranking_a01" horiz-adv-x="1394" d="M1351.013 810.203c-23.876 0-43.233-19.357-43.233-43.233 0-11.256 4.401-21.383 11.451-29.095-3.116-6.894-93.165-205.415-186.915-260.333-2.454-1.363-10.477-5.141-16.164-1.558l0.195 2.415c-43.506 98.618 23.369 323.274 25.278 329.701 21.383 2.61 38.014 20.604 38.014 42.688 0 23.876-19.357 43.233-43.233 43.233s-43.233-19.357-43.233-43.233c0-14.567 7.244-27.342 18.267-35.171-2.687-9.815-61.928-223.565-147.343-288.999-0.195-0.039-1.207-0.312-2.687-0.467-5.219 0.428-12.619 3.233-17.254 14.645-42.688 91.257-19.747 277.159-15.112 310.811 20.020 3.778 35.171 21.305 35.171 42.415 0 23.876-19.357 43.233-43.233 43.233s-43.233-19.357-43.233-43.233c0-15.541 8.296-29.095 20.643-36.69-3.505-26.524-29.562-208.999-92.776-290.83-1.753-2.103-10.633-11.84-20.604-12.619-3.427 0.467-6.894 2.064-10.205 5.687-62.318 84.012-62.357 296.049-62.201 317.003 16.164 6.271 27.654 21.85 27.654 40.195 0 23.876-19.357 43.233-43.233 43.233s-43.233-19.357-43.233-43.233c0-18.345 11.49-33.924 27.654-40.195 0.156-20.954 0.117-232.991-62.201-317.003-3.311-3.622-6.777-5.219-10.205-5.687-9.971 0.818-18.851 10.555-20.604 12.619-63.097 81.909-89.154 264.345-92.698 290.869 12.347 7.595 20.643 21.149 20.643 36.69 0 23.876-19.357 43.233-43.233 43.233s-43.233-19.357-43.233-43.233c0-21.11 15.151-38.637 35.171-42.415 4.635-33.652 27.576-219.554-15.112-310.811-4.674-11.412-12.074-14.216-17.254-14.645-1.48 0.156-2.532 0.428-2.687 0.467-85.376 65.395-144.655 279.184-147.343 288.999 11.022 7.829 18.267 20.643 18.267 35.171 0 23.876-19.357 43.233-43.233 43.233s-43.233-19.357-43.233-43.233c0-22.084 16.631-40.078 38.014-42.688 1.947-6.427 68.783-231.083 25.278-329.701l0.195-2.415c-5.687-3.583-13.71 0.195-16.164 1.558-93.749 54.879-183.799 253.4-186.915 260.333 7.050 7.673 11.451 17.838 11.451 29.095 0 23.876-19.357 43.233-43.233 43.233-23.759-0.039-43.116-19.357-43.116-43.233s19.357-43.233 43.233-43.233c2.493 0 4.908 0.312 7.283 0.74 1.986-4.206 7.128-15.268 13.983-31.12l119.378-256.36 11.178-24.849h0.117c3.35-7.050 11.022-23.252 20.954-44.246l157.742-431.941h689.392l119.845 436.381c4.752 10.75 8.296 19.046 10.010 23.837 1.947 5.297 3.505 9.309 4.596 12.035l1.597 3.934 11.178 24.849 119.378 256.36c6.816 15.852 11.996 26.914 13.983 31.12 2.376-0.389 4.791-0.74 7.283-0.74 23.876 0 43.233 19.357 43.233 43.233s-19.474 43.194-43.35 43.194z" />
<glyph unicode="&#xe911;" glyph-name="ranking_a02" horiz-adv-x="1290" d="M1224.361 674.238c-32.829 0-57.246-27.221-54.559-61.101 0.935-11.332 5.024-21.847 10.865-30.959-22.548-49.535-104.561-105.029-157.368-93.579-40.072 8.645-48.016 57.48-48.834 97.318-0.234 10.164 9.58 101.991 17.407 135.404 30.959 1.285 56.078 24.534 58.18 56.311 2.453 35.165-24.183 67.059-59.466 71.616-35.165 4.556-66.125-19.744-69.162-54.676-1.636-18.693 5.024-36.45 16.94-50.003-10.865-39.955-23.249-80.261-45.797-113.791-25.585-37.969-76.406-70.798-117.763-67.176-43.226 3.855-67.293 40.423-82.948 87.855-15.305 46.264-15.421 127.81-14.954 175.943-0.234 0-0.584 0-0.818 0 22.314 12.267 37.502 35.633 37.151 62.386-0.467 38.904-32.712 70.097-72.083 70.097s-71.733-31.193-72.2-70.097c-0.35-29.791 17.992-55.377 44.395-66.242 0.35-48.484-0.117-126.992-14.954-172.205-15.655-47.432-39.722-84-82.948-87.855-41.357-3.622-92.178 29.207-117.763 67.176-22.548 33.413-34.932 73.835-45.797 113.791 11.916 13.552 18.693 31.31 16.94 50.003-3.154 34.932-34.114 59.232-69.162 54.676-35.165-4.556-61.802-36.567-59.466-71.616 2.22-31.66 27.221-55.026 58.18-56.311 7.944-33.413 17.641-125.24 17.407-135.404-0.818-39.838-8.879-88.673-48.834-97.318-52.806-11.332-134.82 44.044-157.368 93.579 5.958 9.229 10.047 19.744 10.865 30.959 2.804 33.88-21.613 61.101-54.559 61.101-32.829 0-62.153-27.221-65.541-61.101-3.388-34.231 20.912-62.269 54.442-62.269 0.35 0.234 0.818 0.35 1.285 0.35-0.117 0-0.117 0-0.234-0.117 57.246-72.784 182.953-491.263 182.836-614.984 172.088 0 222.441 0 394.529 0 2.453 0 4.79 0 7.243 0 1.519 0 3.154 0 4.673 0s3.154 0 4.673 0c2.453 0 4.79 0 7.243 0 172.088 0 202.697 0 374.785 0 1.285 134.119 97.668 476.426 202.58 614.984-0.117 0-0.117 0.117-0.234 0.117 0.467 0 0.935-0.117 1.285-0.117 33.53 0 57.83 28.039 54.442 62.269-3.271 33.88-32.712 60.984-65.541 60.984z" />
<glyph unicode="&#xe912;" glyph-name="ranking_a03" horiz-adv-x="1191" d="M1091.542 776.233c-1.512 0-2.978-0.142-4.49-0.236-1.512 0.047-2.978 0.236-4.49 0.236-54.78 0-99.162-42.491-99.162-94.908 0-29.919 14.51-56.529 37.103-73.923-10.871-36.536-33.984-101.526-78.555-144.112-37.198-35.543-110.364-51.425-160.134-32.377-29.21 11.155-52.559 32.991-70.047 57.569-23.113 32.518-37.009 70.52-46.556 108.474-6.759 26.941-11.202 54.402-14.227 82.005-1.843 16.826-3.12 33.747-3.97 50.668-0.331 6.428-5.814 51.235-1.276 53.788 29.21 16.543 48.825 46.887 48.825 81.674 0.047 52.417-44.335 94.908-99.351 94.908-54.78 0-99.162-42.491-99.162-94.908 0-34.834 19.615-65.179 48.825-81.674 0-76.9-5.814-156.637-32.708-229.709-14.085-38.238-35.023-76.381-68.298-102.518-16.921-13.329-37.339-23.491-59.223-26.563-47.076-6.617-100.249 9.075-135.982 38.757-44.524 42.491-67.636 107.481-78.507 144.017 22.593 17.394 37.103 44.004 37.103 73.923 0 52.417-44.382 94.908-99.162 94.908-1.512 0-2.978-0.142-4.49-0.236-1.512 0.047-2.978 0.236-4.49 0.236-54.733 0-99.115-42.491-99.115-94.908s44.382-94.908 99.162-94.908c0.284 0 0.52 0.047 0.804 0.047 0 0 153.47-650.463 153.706-650.463 0 0 341.444 0 341.633 0 0 0 338.75 0 338.986 0l156.4 650.463c0.284 0 0.52-0.047 0.804-0.047 54.78 0 99.162 42.491 99.162 94.908s-44.382 94.908-99.115 94.908z" />
<glyph unicode="&#xe913;" glyph-name="ranking_a05" horiz-adv-x="1388" d="M1233.157 756.071l17.43-154.005c-1.245 0.373-83.414 103.832-88.518 110.804-15.438-11.080-30.627-22.161-45.94-33.117-26.643-18.426-55.277-40.711-85.779-61.876-0.622-0.498-1.245-0.871-1.867-1.369 21.787-52.787 40.213-97.109 56.896-137.695 49.301 15.687 90.261 28.759 131.595 41.831l-15.438-42.454c-44.446-109.061-205.173-33.988-224.097 57.145l0.373 1.992c-0.249-0.373-0.373-0.622-0.622-0.996 0 0.249-0.124 0.498-0.124 0.747l-0.249-1.245c-50.422-82.169-233.061-113.667-237.294 3.237l0.124 45.068c35.731-23.53 70.964-46.811 113.169-74.699 30.627 34.611 64.117 72.209 103.832 117.029-0.498 0.622-0.871 1.12-1.245 1.743-21.663 28.261-41.333 57.269-60.382 82.044-10.831 14.691-21.538 29.382-32.494 44.197-7.47-5.229-124.996-82.667-126.366-82.667l72.707 143.796-114.912 144.418-114.788-144.294 72.707-143.796c-1.369 0-118.896 77.438-126.366 82.667-10.956-14.815-21.787-29.631-32.494-44.197-19.048-24.9-38.719-53.783-60.382-82.044-0.373-0.622-0.871-1.12-1.245-1.743 39.715-44.819 73.205-82.418 103.832-117.029 42.205 27.888 77.563 51.169 113.169 74.699l0.124-45.068c-4.108-117.029-186.872-85.406-237.294-3.237l-0.249 1.245c0-0.249-0.124-0.498-0.124-0.747-0.249 0.373-0.373 0.622-0.622 0.996l0.373-1.992c-18.924-91.133-179.651-166.33-224.097-57.145l-15.438 42.454c41.209-13.072 82.293-26.145 131.595-41.831 16.807 40.462 35.109 84.783 56.896 137.695-0.622 0.498-1.245 0.871-1.867 1.369-30.502 21.165-59.137 43.45-85.779 61.876-15.189 10.956-30.502 22.036-45.94 33.117-5.104-6.972-87.273-110.43-88.518-110.804l17.43 154.005-154.876 103.583 112.671-306.64 105.948-288.089h0.249l123.253-329.049h706.653l120.266 329.174c0 0 0.124 0 0.124 0l18.301 49.799 15.189 40.96h-0.124l185.254 504.094-154.627-103.956z" />
<glyph unicode="&#xe914;" glyph-name="ranking_a06" horiz-adv-x="1171" d="M1170.789 737.286l-302.234-219.78-283.161 442.494-281.694-447.335-303.701 224.621 123.021-801.286h930.102z" />
<glyph unicode="&#xe915;" glyph-name="ranking_a08" horiz-adv-x="1161" d="M873.372 524.502l-292.972 277.623-263.614-277.623-241.077 100.987 137.715-689.428h734.013l137.776 689.428-211.841-100.987zM290.231-31.718c-20.953 0-37.824 16.933-37.824 37.885 0 20.892 16.933 37.824 37.824 37.824s37.824-16.933 37.824-37.824c0-20.953-16.933-37.885-37.824-37.885zM435.377-31.718c-20.953 0-37.885 16.933-37.885 37.885 0 20.892 16.994 37.824 37.885 37.824s37.824-16.933 37.824-37.824c0-20.953-16.933-37.885-37.824-37.885zM580.462-31.718c-20.892 0-37.824 16.933-37.824 37.885 0 20.892 16.933 37.824 37.824 37.824 20.953 0 37.885-16.933 37.885-37.824-0.061-20.953-16.994-37.885-37.885-37.885zM725.547-31.718c-20.892 0-37.824 16.933-37.824 37.885 0 20.892 16.933 37.824 37.824 37.824 20.953 0 37.885-16.933 37.885-37.824 0-20.953-16.994-37.885-37.885-37.885zM870.692-31.718c-20.953 0-37.824 16.933-37.824 37.885 0 20.892 16.933 37.824 37.824 37.824s37.824-16.933 37.824-37.824c0-20.953-16.933-37.885-37.824-37.885zM639.848 900.675c0-32.769-26.556-59.325-59.386-59.325-32.769 0-59.386 26.556-59.386 59.325s26.556 59.325 59.386 59.325c32.769 0 59.386-26.556 59.386-59.325zM118.711 720.75c0-32.769-26.556-59.386-59.386-59.386-32.769 0.061-59.325 26.617-59.325 59.386s26.556 59.386 59.386 59.386c32.769 0 59.325-26.556 59.325-59.386zM1160.862 720.75c0-32.769-26.556-59.386-59.325-59.386s-59.325 26.617-59.325 59.386c0 32.769 26.556 59.386 59.325 59.386s59.325-26.556 59.325-59.386z" />
<glyph unicode="&#xe916;" glyph-name="ranking_a09" horiz-adv-x="1325" d="M1216.761 514.224l-216.826-48.13-48.251 265.017-168.636-216.887-120.446 289.202-120.506-289.202-168.696 216.887-48.13-265.017-216.826 48.13 156.634-578.224h795.051zM710.793 911.81c0-26.598-21.592-48.19-48.19-48.19s-48.13 21.592-48.13 48.19c0 26.658 21.532 48.19 48.13 48.19s48.19-21.592 48.19-48.19zM397.586 815.429c0-26.598-21.592-48.13-48.251-48.13-26.598 0-48.19 21.592-48.19 48.13 0 26.598 21.592 48.19 48.19 48.19 26.658 0 48.251-21.592 48.251-48.19zM1024 815.429c0-26.598-21.592-48.13-48.19-48.13s-48.19 21.592-48.19 48.13c0 26.598 21.592 48.19 48.19 48.19s48.19-21.592 48.19-48.19zM96.381 598.602c0-26.598-21.532-48.251-48.19-48.251-26.598 0-48.19 21.652-48.19 48.251s21.592 48.19 48.19 48.19c26.658 0 48.19-21.592 48.19-48.19zM1325.205 598.602c0-26.598-21.592-48.251-48.19-48.251-26.658 0-48.19 21.652-48.19 48.251s21.592 48.19 48.19 48.19c26.598 0 48.19-21.592 48.19-48.19z" />
<glyph unicode="&#xe917;" glyph-name="ranking_a10" horiz-adv-x="1151" d="M931.968 616.628c-16.018 96.4-140.378 206.489-298.23 92.032-3.204 22.425-19.222 40.482-40.774 47.181 18.931 36.696 39.609 57.666 76.887 82.421-48.928 32.328-69.315 58.539-94.653 121.738-25.047-63.199-45.433-89.411-94.362-121.738 37.279-24.755 57.957-45.725 76.887-82.421-21.552-6.699-37.57-24.755-40.774-47.181-157.852 114.457-282.503 4.369-298.23-92.032-408.027 41.065-142.125-434.53-24.755-529.183v-151.445h762.758v151.445c117.078 94.362 383.272 570.248-24.755 529.183zM280.173-15.945c-19.804 0-36.114 16.018-36.114 36.114s16.018 36.114 36.114 36.114c19.804 0 36.114-16.018 36.114-36.114s-16.309-36.114-36.114-36.114zM431.327-15.945c-19.804 0-36.114 16.018-36.114 36.114s16.018 36.114 36.114 36.114c19.804 0 36.114-16.018 36.114-36.114s-16.309-36.114-36.114-36.114zM579.276-15.945c-19.804 0-36.114 16.018-36.114 36.114s16.018 36.114 36.114 36.114c19.804 0 36.114-16.018 36.114-36.114s-16.309-36.114-36.114-36.114zM719.363-15.945c-19.804 0-36.114 16.018-36.114 36.114s16.018 36.114 36.114 36.114c19.804 0 36.114-16.018 36.114-36.114s-16.309-36.114-36.114-36.114zM870.516-15.945c-19.804 0-36.114 16.018-36.114 36.114s16.018 36.114 36.114 36.114c19.804 0 36.114-16.018 36.114-36.114s-16.309-36.114-36.114-36.114z" />
<glyph unicode="&#xe918;" glyph-name="ranking_a07" horiz-adv-x="1373" d="M1267.832 623.127l-281.67-307.24-301.106 483.283-294.654-483.283-288.122 307.24 158.997-687.127h847.478zM746.711 898.345c0-34.094-27.641-61.655-61.655-61.655-34.094 0-61.655 27.562-61.655 61.655 0 34.014 27.562 61.655 61.655 61.655s61.655-27.641 61.655-61.655zM1373.379 715.929c0-34.094-27.641-61.655-61.655-61.655-34.094 0-61.655 27.562-61.655 61.655 0 34.014 27.641 61.655 61.655 61.655s61.655-27.562 61.655-61.655zM123.31 719.752c0-34.094-27.641-61.655-61.655-61.655s-61.655 27.562-61.655 61.655c0 34.014 27.641 61.655 61.655 61.655 34.094 0 61.655-27.641 61.655-61.655z" />
<glyph unicode="&#xe919;" glyph-name="ranking_a04" d="M1024 679.562c0 42.968-34.844 77.782-77.812 77.782-42.938 0-77.782-34.812-77.782-77.782 0-21 8.344-40 21.876-54-52.906-109.562-154.032-147.782-232.406-113.156-69.812 30.844-95.562 119.094-104.282 187.468 28.438 15 47.844 44.812 47.844 79.188 0 49.438-40.032 89.468-89.438 89.468-49.438 0-89.468-40.032-89.468-89.468 0-34.376 19.406-64.188 47.876-79.188-8.718-68.376-34.5-156.626-104.282-187.468-78.376-34.624-179.47 3.594-232.408 113.156 13.5 14 21.876 33 21.876 54 0 42.968-34.844 77.782-77.812 77.782s-77.782-34.812-77.782-77.782c0-39.532 29.468-72.062 67.626-77.062l119.5-495.032h649.75l119.5 495.032c38.124 5 67.624 37.532 67.624 77.062z" />
<glyph unicode="&#xe91a;" glyph-name="movie01" horiz-adv-x="1403" d="M1333.659 960h-1264.239c-38.353 0-69.42-31.067-69.42-69.42v-885.159c0-38.353 31.067-69.42 69.42-69.42h1264.239c38.353 0 69.42 31.067 69.42 69.42v885.159c-0.101 38.353-31.168 69.42-69.42 69.42zM1303.806 37.196h-1202.611v823.531h1202.611v-823.531zM702.4 222.384c155.74 0 282.437 126.697 282.437 282.437s-126.697 282.437-282.437 282.437-282.437-126.697-282.437-282.437c0-155.74 126.697-282.437 282.437-282.437zM702.4 716.422c116.679 0 211.6-94.922 211.6-211.6s-94.922-211.6-211.6-211.6c-116.679 0-211.6 94.922-211.6 211.6s94.922 211.6 211.6 211.6zM870.081 505.833l-241.048 137.829v-275.657l120.524 68.914zM219.494 92.752h82.171v-20.543c0-7.488 2.226-13.257 8.5-13.257h39.669c6.274 0 9.411 5.768 9.411 13.257v20.543h823.228c6.274 0 12.143 8.905 12.143 18.316v42.502c0 9.411-5.971 16.596-12.143 16.596h-823.329v17.507c0 7.488-3.137 12.245-9.411 12.245h-39.669c-6.274 0-8.5-4.756-8.5-12.245v-17.507h-82.171c-6.274 0-11.132-7.185-11.132-16.596v-42.502c0.101-9.31 4.959-18.316 11.233-18.316z" />
<glyph unicode="&#xe91b;" glyph-name="fukidasi01" horiz-adv-x="1166" d="M1038.826 218.029c82 80.674 126.809 180.979 126.809 284.928 0 251.962-261.405 457.044-582.776 457.044s-582.859-205.082-582.859-457.127c0-252.045 261.487-457.127 582.859-457.127 92.436 0 183.878 17.311 265.794 50.111l217.506-152.983c6.626-4.638 14.329-6.958 22.032-6.958 8.2 0 16.483 2.65 23.357 7.951 13.252 10.188 18.388 27.913 12.59 43.567l-85.313 230.593zM875.324 170.734c-6.543 4.638-14.246 6.958-22.032 6.958-5.218 0-10.519-1.077-15.406-3.23-77.278-34.125-165.49-52.099-255.027-52.099-279.13 0-506.243 170.708-506.243 380.594 0 209.803 227.114 380.511 506.243 380.511s506.243-170.708 506.243-380.511c0-89.62-42.739-176.92-120.349-245.667-11.844-10.436-15.986-27.085-10.519-41.911l51.353-139.068-134.264 94.424zM325.679 559.859c-30.895 0-55.909-25.014-55.909-55.909s25.014-55.909 55.909-55.909c30.895 0 55.909 25.014 55.909 55.909s-25.014 55.909-55.909 55.909zM497.132 559.859c-30.895 0-55.909-25.014-55.909-55.909s25.014-55.909 55.909-55.909c30.895 0 55.909 25.014 55.909 55.909s-25.014 55.909-55.909 55.909zM668.586 559.859c-30.895 0-55.909-25.014-55.909-55.909s25.014-55.909 55.909-55.909c30.895 0 55.909 25.014 55.909 55.909s-25.014 55.909-55.909 55.909zM840.039 559.859c-30.895 0-55.909-25.014-55.909-55.909s25.014-55.909 55.909-55.909c30.895 0 55.909 25.014 55.909 55.909s-25.014 55.909-55.909 55.909z" />
<glyph unicode="&#xe91c;" glyph-name="graph01" horiz-adv-x="1198" d="M1161.679 12.932h-114.899v47.558h-43.462v-47.558h-121.593v47.558h-43.462v-47.558h-121.693v47.558h-43.462v-47.558h-121.593v47.558h-43.462v-47.558h-121.593v47.558h-43.462v-47.558h-121.693v47.558h-43.462v-47.558h-100.911v106.307h47.558v43.462h-47.558v121.693h47.558v43.462h-47.558v121.593h47.558v43.462h-47.558v121.593h47.558v43.462h-47.558v121.693h47.558v43.462h-47.558v98.913c0 20.982-16.985 37.967-37.867 37.967h-39.066v-1024h1176.166v62.445c0 7.993-6.494 14.487-14.487 14.487zM450.404 358.728l258.373-162.357 181.041 114.3 160.759-121.493 147.171 245.884-43.162 25.877-118.396-197.726-143.774 108.605-183.739-115.798-259.072 162.657-258.673-171.449 27.876-42.063zM388.259 568.344l221.805-122.293 60.447 190.333 63.544-123.991 189.234 53.053 133.982-79.63 46.759 172.448c5.595 20.782-6.594 42.063-27.376 47.758l-11.090 2.997-39.565-145.872-95.516 56.75-170.35-47.758-100.711 196.327-78.831-248.582-187.036 103.109-196.327-62.645 15.287-48.058 175.746 56.051z" />
<glyph unicode="&#xe91d;" glyph-name="tablet01" horiz-adv-x="1351" d="M291.246 676.736l36.011-87.151h64.226l32.948 185.439h-65.247l-11.602-66.082-27.658 66.082h-76.106l-32.948-185.439h65.062zM568.569 589.585l8.353 46.406h-78.612l5.105 27.751h72.487l8.26 48.727h-72.394l2.784 16.149h78.612l8.353 46.406h-147.293l-32.948-185.439zM694.98 589.585l7.425 17.356c1.114 1.763 1.949 3.527 2.413 5.105 2.599 4.362 3.805 8.446 5.569 12.808 2.413 5.105 4.919 10.302 7.147 15.685l8.632 18.655 7.239-69.517h70.166l83.346 185.439h-70.166l-6.126-13.829-3.156-7.425-2.784-6.775c-0.557-1.763-1.671-3.527-2.227-5.29-4.177-10.488-8.353-21.068-12.994-31.556-0.65-2.32-1.763-6.218-3.248-8.539l-5.476 73.415h-66.268c-7.239-18.562-18.562-40.559-25.895-58.75-2.692-4.919-4.269-9.838-6.868-14.664l-2.877 73.507h-71.93l17.634-185.439h70.445zM921.906 661.422h-0.278c5.105-2.32 12.437-3.248 19.119-4.548l2.413-0.464 4.455-0.65 6.961-1.763 6.682-1.763h-0.278c5.197 0 9.281-4.084 8.26-9.467-0.928-5.105-3.62-7.332-6.682-8.353-1.763-1.021-4.177-1.763-7.518-1.949-4.177-0.278-6.218-0.464-8.353-0.464-8.446 0-17.17 1.485-26.823 5.383-8.446 3.341-17.449 10.209-26.544 17.17h-21.347l-9.188-51.882c21.254-9.003 44.086-16.428 75.178-16.428 28.029 0 50.583 5.383 69.145 17.449 19.119 12.344 30.35 27.751 33.598 46.499 4.733 27.008-7.147 42.694-35.64 52.903-9.838 3.898-19.862 4.919-29.978 7.239-0.186 0.278-0.65-0.278-1.485-0.278h-0.557l-3.991 1.578c-6.59 1.485-11.137 3.712-13.365 5.754-0.742 0.835-1.114 2.784-0.65 5.662 0.557 3.341 2.97 6.497 5.94 7.518 5.569 2.32 10.302 3.156 16.242 3.156 8.26 0 16.149-2.692 24.502-6.033 6.868-3.063 14.107-6.033 21.347-15.314h21.625l8.91 51.232c-20.512 9.003-46.499 15.128-70.63 15.128-25.431 0-47.056-5.476-65.062-15.964-19.212-11.602-30.535-27.844-33.598-45.571-4.362-26.637 6.126-44.179 37.589-55.78zM1272.552 960h-1194.125c-43.343 0-78.427-42.23-78.427-94.019v-836.333c0-51.789 35.083-93.648 78.427-93.648h1194.125c43.343 0 78.519 41.858 78.519 93.648v836.333c0 51.789-35.176 94.019-78.519 94.019zM95.411 316.067c0-10.766-10.024-18.841-21.904-18.841h-0.093c-11.787 0-20.604 7.982-20.604 18.841v263.216c0 10.766 8.817 19.491 20.604 19.491h0.186c11.787 0 21.904-8.632 21.904-19.491v-263.216zM1143.264 17.768h-1008.686v858.701h1008.593v-858.701zM1298.261 389.389c0-35.454-23.017-64.133-51.975-64.133s-51.975 28.679-51.975 64.133v116.665c0 35.454 23.017 64.133 51.975 64.133s51.975-28.679 51.975-64.133v-116.665zM207.065 506.797h822.875v-76.385h-822.875v76.385zM207.065 356.905h822.875v-76.385h-822.875v76.385zM207.065 206.92h822.875v-76.385h-822.875v76.385z" />
<glyph unicode="&#xe91e;" glyph-name="gizacircle01" horiz-adv-x="1027" d="M846.123 56.943c-6.975-5.936-78.66 36.084-86.217 30.909s5.696-87.203-2.361-91.56c-8.057-4.356-69.439 51.649-77.907 48.159s-12.559-86.482-21.346-89.068c-8.786-2.586-57.183 64.958-66.191 63.305s-30.266-81.981-39.398-82.684c-9.132-0.703-42.428 75.427-51.583 75.683s-46.649-73.897-55.728-72.686c-9.079 1.211-25.818 82.6-34.72 84.754s-60.994-62.583-69.622-59.511c-8.628 3.072-8.080 86.163-16.34 90.121s-72.673-48.534-80.474-43.735c-7.801 4.799 10.010 85.96 2.754 91.549s-81.175-32.364-87.808-26.048c-6.633 6.316 27.664 82.001 21.728 88.976s-86.13-14.78-91.305-7.222c-5.175 7.557 44.108 74.457 39.752 82.514s-87.321 3.451-90.811 11.919c-3.49 8.468 58.625 63.659 56.039 72.446s-84.695 21.531-86.349 30.539c-1.653 9.009 70.579 50.079 69.877 59.212s-78.368 38.669-78.112 47.825c0.256 9.155 79.449 34.311 80.66 43.389s-68.616 54.118-66.462 63.020c2.154 8.902 84.847 17.043 87.919 25.671s-55.865 67.201-51.907 75.461c3.957 8.26 86.536-0.97 91.335 6.831s-40.672 77.348-35.084 84.604c5.588 7.257 84.443-18.941 90.759-12.308s-23.702 84.114-16.727 90.050c6.975 5.936 78.66-36.084 86.217-30.909s-5.696 87.203 2.361 91.56c8.057 4.356 69.439-51.649 77.907-48.159s12.559 86.482 21.346 89.068c8.786 2.586 57.183-64.958 66.191-63.305s30.266 81.981 39.398 82.684c9.132 0.703 42.428-75.427 51.583-75.683s46.649 73.897 55.728 72.685c9.079-1.211 25.818-82.6 34.72-84.754s60.994 62.583 69.622 59.511c8.628-3.072 8.080-86.163 16.34-90.121s72.673 48.534 80.474 43.735c7.801-4.799-10.010-85.96-2.754-91.549s81.175 32.364 87.808 26.048c6.633-6.316-27.664-82.001-21.728-88.976s86.13 14.78 91.305 7.222c5.175-7.557-44.108-74.457-39.752-82.514s87.321-3.451 90.811-11.919c3.49-8.468-58.625-63.659-56.039-72.446s84.695-21.531 86.349-30.539c1.653-9.009-70.579-50.079-69.877-59.212s78.368-38.669 78.112-47.825c-0.256-9.155-79.449-34.311-80.66-43.389s68.616-54.118 66.462-63.020c-2.154-8.902-84.847-17.043-87.919-25.671s55.865-67.201 51.907-75.461c-3.957-8.26-86.536 0.97-91.335-6.831s40.672-77.348 35.084-84.604c-5.588-7.257-84.443 18.941-90.759 12.308s23.702-84.114 16.727-90.050z" />
<glyph unicode="&#xe91f;" glyph-name="world01" d="M983.775 647.278c-25.765 60.991-62.683 115.752-109.676 162.745s-101.754 83.91-162.745 109.676c-63.221 26.765-130.211 40.302-199.355 40.302s-136.133-13.536-199.278-40.225c-60.991-25.842-115.752-62.76-162.745-109.753s-83.91-101.754-109.753-162.745c-26.688-63.144-40.225-130.211-40.225-199.278s13.536-136.133 40.225-199.278c25.765-60.991 62.683-115.752 109.676-162.745s101.754-83.91 162.745-109.676c63.144-26.688 130.211-40.225 199.278-40.225s136.133 13.536 199.278 40.225c60.991 25.765 115.752 62.683 162.745 109.676s83.91 101.754 109.676 162.745c26.688 63.144 40.225 130.211 40.225 199.278 0.154 69.143-13.383 136.133-40.071 199.278zM340.564 852.939c-10.921-15.844-21.228-33.226-30.765-52.146-10.921-21.689-20.843-45.147-29.611-70.066-26.611 9.691-51.3 20.843-73.604 33.457 39.071 37.764 84.064 67.605 133.98 88.756zM106.907 618.513c13.383 31.688 30.534 61.76 51.069 89.525 30.226-18.305 64.375-34.226 101.831-47.454-13.229-55.146-21.381-115.29-23.612-177.743h-162.36c3.769 46.378 14.844 92.525 33.072 135.672zM106.907 276.41c-18.151 42.84-29.226 87.833-33.072 134.288h162.283c2.23-62.529 10.152-120.597 23.535-176.204-37.533-13.306-71.682-29.226-101.831-47.377-20.458 27.842-37.533 57.761-50.915 89.294zM206.584 131.817c22.304 12.537 46.993 23.766 73.604 33.457 8.691-24.842 18.689-48.377 29.611-70.066 9.537-18.92 19.843-36.302 30.765-52.146-49.916 21.151-94.909 50.992-133.98 88.756zM481.466 13.834c-12.844 4.692-26.381 12.46-39.609 23.535-24.996 20.92-47.608 51.377-67.374 90.525-8.845 17.536-17.074 36.61-24.612 57.991 41.994 9.922 86.679 16.075 131.596 18.459v-190.51zM481.466 276.949c-51.3-2.538-103.523-9.691-152.054-21.458-1.231 4.769-2.23 9.537-3.307 14.459-9.537 44.609-15.459 92.601-17.382 140.671h172.743v-133.672zM481.466 482.764h-172.82c1.923 49.685 7.768 97.216 17.382 142.286 1.077 4.999 2.154 10.306 3.384 15.228 48.070-11.537 100.831-18.536 152.054-21.151v-136.364zM481.466 691.579c-44.839 2.384-89.602 8.614-131.596 18.459 7.384 20.612 15.767 40.071 24.766 57.991 19.843 39.302 42.378 69.759 67.144 90.525 13.229 11.075 26.842 18.843 39.609 23.535v-190.51zM822.799 758.799c1-1 2.077-2.077 3.076-3.076-24.304-12.383-50.992-23.304-79.603-32.38-9.306 27.611-20.074 53.607-32.149 77.45-9.537 18.92-19.843 36.302-30.765 52.146 52.3-22.151 99.216-53.838 139.441-94.14zM553.609 877.782c9.614-4.615 18.92-10.921 28.688-19.074 25.073-20.997 47.531-51.454 67.298-90.525 9.537-18.92 18.459-39.609 26.458-62.914-39.686-7.999-80.757-12.69-122.443-14.152v186.664zM553.609 618.59c48.070 1.615 96.524 7.23 142.363 16.844 0.769-3.23 1.384-7.076 2-10.306 9.768-45.685 15.459-92.601 17.382-142.286h-161.745v135.749zM553.609 410.621h161.668c-2-48.070-7.999-95.986-17.536-140.671-0.692-3.23-1.077-6.23-1.846-9.383-45.916 9.614-94.294 15.228-142.363 16.921v133.134zM649.364 127.894c-19.843-39.302-42.224-69.759-66.99-90.525-9.768-8.153-19.151-14.536-28.765-19.074v186.741c41.686-1.461 82.68-6.153 122.366-14.152-7.768-22.535-16.844-43.609-26.611-62.991zM822.799 137.201c-40.302-40.302-87.218-71.912-139.364-94.063 10.921 15.844 21.228 33.226 30.765 52.146 11.998 23.766 22.766 49.762 32.149 77.45 28.534-9.152 55.222-19.997 79.603-32.38-1.077-1.154-2.077-2.154-3.153-3.153zM917.016 276.487c-11.691-27.534-26.381-54.146-43.916-79.296-31.611 17.382-67.605 32.38-107.138 44.763 12.152 52.838 19.612 109.368 21.843 168.667h162.283c-3.846-46.455-14.921-91.294-33.072-134.134zM787.805 482.764c-2.077 59.299-9.46 116.521-21.843 170.282 38.994 12.306 74.989 27.765 107.138 45.455 17.382-24.919 32.149-52.146 43.916-80.142 18.228-43.147 29.38-89.14 33.072-135.595h-162.283z" />
<glyph unicode="&#xe920;" glyph-name="news_agency01" horiz-adv-x="1525" d="M1250.899 301.809c-101.025 0-182.904-81.879-182.904-182.904s81.879-182.904 182.904-182.904c101.025 0 182.904 81.879 182.904 182.904-0.102 101.025-81.981 182.904-182.904 182.904zM377.215 301.809c-101.025 0-182.904-81.879-182.904-182.904s81.879-182.904 182.904-182.904c101.025 0 182.904 81.879 182.904 182.904s-81.879 182.904-182.904 182.904zM1504.175 569.546c-15.683 27.497-30.756 55.095-46.133 82.796-34.524 61.817-68.233 123.939-102.553 185.756-7.842 14.156-15.683 28.719-23.525 42.976-23.932 43.384-83.407 78.926-132.901 78.926h-1141.421c-31.978 0-57.641-24.747-57.641-54.79v-694.344c0-30.043 25.664-54.892 57.641-54.892h96.442c17.924 106.525 111.005 188.709 223.233 188.709 112.126 0 205.309-82.185 223.233-188.709h425.691c7.638 46.337 29.534 89.721 63.65 123.939 42.976 42.976 100.21 66.705 161.009 66.705s118.032-23.729 161.009-66.705c32.080-32.080 53.364-72.103 62.122-115.69 30.552 14.258 51.531 45.217 51.531 81.268 0 0 0 193.496 0 193.699-0.102 43.995 1.222 90.943-21.386 130.355zM233.417 523.616l-27.293 65.992-11.61-65.992h-49.291l24.951 140.845h57.641l20.979-50.105 8.86 50.105h49.494l-24.951-140.845h-48.781zM435.060 630.141h-59.576l-2.139-13.748h54.892l-6.314-34.32h-54.892l-3.87-22.303h59.576l-6.314-36.051h-111.718l24.951 140.845h111.617l-6.212-34.422zM594.643 523.616h-53.16l-5.499 52.855-6.518-13.952c-1.731-4.074-3.564-7.944-5.398-11.813-1.324-3.361-2.342-6.416-4.277-9.777-0.407-1.12-1.018-2.648-1.833-3.972l-5.601-13.341h-53.364l-13.443 140.845h54.586l2.24-55.401c2.037 3.666 3.259 6.925 5.194 10.693 5.601 13.85 14.054 32.691 19.655 44.81h50.309l4.175-55.605c1.12 1.731 1.935 4.481 2.444 6.314 3.564 7.944 6.721 16.091 9.878 24.034 0.407 1.324 1.222 2.75 1.731 4.175l2.139 5.296 2.444 5.398 4.685 10.49h53.16l-63.548-141.048zM777.649 618.124h-16.396c-5.499 6.823-10.999 8.758-16.193 11.101-6.416 2.546-12.323 3.972-18.637 3.972-4.481 0-8.045-0.509-12.323-2.24-2.24-0.815-4.074-3.055-4.481-5.601-0.407-2.24-0.102-3.463 0.509-4.175 1.731-1.528 5.092-2.953 10.082-4.074l3.055-0.713h0.407c0.611 0 0.917-0.102 1.12-0.306 7.638-1.731 15.276-3.055 22.71-6.009 21.59-7.842 30.654-19.655 26.988-40.125-2.546-14.258-10.999-25.867-25.46-35.237-14.054-9.166-31.163-13.239-52.448-13.239-23.525 0-40.838 5.703-57.030 12.526l6.925 39.412h16.193c6.925-5.194 13.748-10.591 20.062-13.137 7.231-2.953 13.85-4.074 20.266-4.074 1.528 0 3.157 0.204 6.314 0.407 2.546 0.204 4.379 0.815 5.703 1.528 2.24 0.815 4.379 2.444 4.99 6.314 0.713 4.074-2.342 5.601-6.314 7.332h0.204l-4.888 1.222-5.296 1.222-3.361 0.611-1.833 0.204c-5.092 1.018-10.693 3.564-14.461 3.564h0.204c-23.932 10.286-31.876 21.997-28.311 42.264 2.342 13.443 10.897 25.562 25.46 34.32 13.647 7.944 30.043 12.526 49.392 12.526 18.331 0 37.986-4.481 53.568-11.304l-6.721-38.292zM946.5 597.552v252.461h273.236l138.502-252.563h-411.739zM710.333 621.077l-0.204 0.204z" />
<glyph unicode="&#xe921;" glyph-name="radio01" horiz-adv-x="1097" d="M278.685 327.754h-0.672c-9.653 0-17.292-7.219-17.292-16.956v-252.579c0-9.653 7.555-17.712 17.292-17.712h0.672c9.653 0 16.452 8.058 16.452 17.712v252.579c0 9.737-6.799 16.956-16.452 16.956zM338.787 304.251c-9.653 0-17.208-6.547-17.208-14.606v-210.693c0-8.058 7.555-14.606 17.208-14.606s17.208 6.547 17.208 14.606v210.693c0 8.058-7.555 14.606-17.208 14.606zM386.466 266.897v-165.7c0-6.38 8.142-11.5 17.879-11.5 9.653 0 17.879 5.12 17.879 11.5v165.7c0 6.38-8.142 11.5-17.879 11.5-9.737-0.084-17.879-5.204-17.879-11.5zM210.441 303.411c-9.653 0-17.208-6.547-17.208-14.606v-210.693c0-8.058 7.555-14.606 17.208-14.606s17.208 6.547 17.208 14.606v210.693c0 8.142-7.555 14.606-17.208 14.606zM144.883 277.557c-9.653 0-16.536-5.12-16.536-11.5v-165.7c0-6.38 6.883-11.5 16.536-11.5s16.536 5.12 16.536 11.5v165.7c0 6.296-6.799 11.5-16.536 11.5zM911.351 139.474c-27.533 0-49.777-22.244-49.777-49.777 0-27.449 22.244-49.777 49.777-49.777 27.449 0 49.777 22.244 49.777 49.777 0 27.449-22.244 49.777-49.777 49.777zM1041.963 624.235h-860.65v14.354l560.98 260.386c4.785-2.77 10.325-4.365 16.285-4.365 18.047 0 32.653 14.606 32.653 32.653s-14.606 32.653-32.737 32.653c-17.712 0-32.15-13.766-32.653-31.394l-593.801-275.327h-45.58c-7.219 0-13.682-6.463-13.682-13.682v-15.277h-17.292c-30.639 0-55.485-25.77-55.485-56.409v-576.005c0-30.639 24.847-55.737 55.485-55.737h986.478c30.639 0 55.149 25.098 55.149 55.737v576.005c0 30.639-24.511 56.409-55.149 56.409zM101.905 546.085h894.646v-63.544h-894.646v63.544zM277.426 8.022c-97.372 0-176.277 78.905-176.277 176.277s78.905 176.277 176.277 176.277c97.288 0 176.277-78.905 176.277-176.277-0.084-97.372-78.989-176.277-176.277-176.277zM608.742 293.338h303.028v-71.434h-303.028v71.434zM911.351-14.726c-57.668 0-104.423 46.755-104.423 104.423s46.755 104.423 104.423 104.423c57.668 0 104.423-46.755 104.423-104.423s-46.755-104.423-104.423-104.423zM1033.569 221.904h-89.985v71.434h89.985v-71.434z" />
<glyph unicode="&#xe922;" glyph-name="television01" horiz-adv-x="758" d="M757.71 576.575c0 78.961-62.671 143.248-141.632 143.248h-162.833c-1.492 16.6-9.14 32.952-20.704 44.703l154.377 154.253c9.45 9.45 9.45 24.745 0 34.133-9.45 9.45-24.745 9.45-34.196 0l-165.258-165.258c-0.56-0.56-1.119-1.181-1.617-1.803-1.679 0.124-3.42 0.187-5.098 0.187-1.927 0-3.793-0.062-5.658-0.249-0.497 0.622-1.057 1.243-1.679 1.865l-165.258 165.258c-9.45 9.45-24.745 9.45-34.196 0s-9.45-24.745 0-34.196l154.626-154.564c-11.44-11.689-18.901-27.792-20.393-44.392h-163.455c-78.961 0-144.74-64.225-144.74-143.186v-382.741c0-42.651 17.844-80.95 48.682-107.187v-110.731c0-22.009 15.17-39.915 34.444-39.915s34.444 17.844 34.444 39.915v77.095c9.513-1.43 18.714-1.865 27.17-1.865h471.338c14.238 0 26.424 1.803 40.662 5.658v-80.888c0-22.009 15.17-39.915 34.444-39.915s34.444 17.844 34.444 39.915v125.839c0 0.56-0.124 1.119-0.124 1.617 20.144 24.621 32.206 56.143 32.206 90.463v382.741zM246.145 74.336c-16.289 0-29.532 13.243-29.532 29.532s13.243 29.532 29.532 29.532c16.289 0 29.532-13.243 29.532-29.532s-13.243-29.532-29.532-29.532zM591.458 84.409h-264.86v45.138h264.86v-45.138zM567.77 163.929h-374.658c-70.816 0-130.129 52.412-130.129 118.254v242.912c0 65.842 59.314 119.871 130.129 119.871h374.658c70.816 0 127.021-53.967 127.021-119.871v-242.912c0-65.842-56.205-118.254-127.021-118.254zM244.902 360.46h-35.688l-20.020 48.433-8.518-48.433h-36.123l18.341 103.892h42.278l15.357-36.745 6.466 36.745h36.309l-18.403-103.892zM261.502 360.46l18.279 103.83h81.883l-4.663-26.299h-43.708l-1.554-8.829h40.289l-4.601-26.175h-40.289l-2.86-16.289h43.708l-4.663-26.299h-81.821zM520.393 464.289l-46.319-103.892h-38.983l-4.041 38.734-4.787-10.259c-1.243-2.984-2.611-5.844-3.979-8.704-0.995-2.425-1.679-4.725-3.109-7.15-0.311-0.87-0.746-1.865-1.368-2.86l-4.166-9.699h-39.169l-9.823 103.892h39.978l1.617-40.972c1.492 2.736 2.363 5.285 3.855 8.020 4.103 10.134 10.321 23.004 14.362 33.014h36.869l3.047-41.159c0.808 1.306 1.43 3.171 1.803 4.414 2.611 5.844 4.912 11.689 7.212 17.595 0.311 0.995 0.933 1.99 1.243 2.984l1.554 3.855 1.741 4.29 3.42 8.020h39.045zM507.088 367.858l5.098 28.849h11.875c5.036-4.601 10.072-7.71 14.735-9.575 5.347-2.114 10.196-2.984 14.922-2.984 1.119 0 2.3 0.124 4.601 0.311 1.865 0.124 3.233 0.56 4.228 1.119 1.679 0.56 3.171 1.865 3.668 4.725 0.497 2.984-1.741 4.725-4.601 5.409h0.124l-3.73 0.87-3.855 0.87-2.487 0.435-1.368 0.435c-3.73 0.684-7.834 1.865-10.632 2.86h0.124c-17.533 6.031-23.377 15.854-20.704 30.714 1.741 9.886 7.958 18.59 18.714 24.994 10.010 5.844 22.072 9.14 36.185 9.14 13.43 0 27.854-3.171 39.294-8.145l-4.912-27.978h-12c-4.041 3.855-8.020 6.28-11.875 8.020-4.663 1.865-9.077 2.86-13.616 2.86-3.295 0-5.906-0.435-9.015-1.741-1.679-0.56-2.984-2.3-3.295-4.166-0.311-1.741-0.062-2.736 0.435-3.171l-0.124 0.124c1.243-1.119 3.793-2.114 7.461-2.984l2.238-0.435h0.249c0.435 0 0.684-0.124 0.808-0.311 5.658-1.306 11.191-2.3 16.663-4.414 15.854-5.72 22.445-14.424 19.833-29.408-1.865-10.445-8.083-19.025-18.714-25.864-10.321-6.715-22.88-9.699-38.423-9.699-17.346 0-30.092 4.166-41.905 9.14z" />
<glyph unicode="&#xe923;" glyph-name="satellite01" horiz-adv-x="1071" d="M440.3 402.379c-64.872-117.031-62.111-243.142 4.359-285.566-5.448 17.653-8.572 37.267-9.299 58.624-2.034 62.838 17.072 133.957 53.83 200.281s86.956 120.227 141.294 151.755c18.089 10.533 36.032 18.161 53.612 22.883-71.192 33.126-179.142-31.383-243.796-147.977zM673.053 283.896l-97.344 84.268-34.942-63.056 123.060-37.921c-3.051-13.875 3.124-28.622 16.2-35.886 15.982-8.863 36.032-3.051 44.894 12.931s3.124 36.032-12.858 44.894c-13.003 7.264-28.84 4.722-39.010-5.23zM638.329 513.961c-51.941-30.148-100.104-82.016-135.482-145.871-35.451-63.927-53.83-132.141-51.941-192.218 0.799-24.191 4.867-45.839 11.914-64.218 35.959 4.359 95.528 78.82 146.306 165.267l-78.674 24.191 43.151 77.875 62.184-53.83c46.783 89.498 78.674 180.232 62.692 212.631-19.106-3.778-39.373-11.768-60.15-23.827zM105.262-18.452c23.755-13.149 53.757-4.577 66.906 19.178l154.733 279.028c13.149 23.755 4.577 53.757-19.178 66.906l-79.909 44.241c-23.755 13.149-53.757 4.577-66.906-19.178l-154.733-279.028c-13.149-23.755-4.577-53.757 19.178-66.906l79.909-44.241zM168.536 312.808l23.028 41.553c3.778 6.829 12.204 9.589 19.033 5.812l79.473-44.095c6.829-3.778 9.444-12.713 5.739-19.541l-23.028-41.553-104.245 57.825zM122.77 230.211l29.131 52.522 104.245-57.753-29.131-52.522-104.245 57.753zM76.568 146.815l29.131 52.522 104.245-57.753-29.131-52.522-104.245 57.753zM41.989 55.936c-6.829 3.778-9.081 12.132-5.303 18.96l22.738 41.044 104.245-57.753-22.738-41.044c-3.778-6.829-12.64-9.008-19.396-5.23l-79.546 44.023zM417.199 544.327c23.755-13.149 53.757-4.577 66.906 19.178l154.661 279.101c13.149 23.755 4.577 53.757-19.178 66.906l-79.909 44.241c-23.755 13.149-53.757 4.577-66.906-19.178l-154.588-279.028c-13.149-23.755-4.577-53.757 19.178-66.906l79.837-44.313zM480.981 876.386l22.665 40.899c3.778 6.829 12.132 9.444 18.96 5.666l79.473-44.095c6.829-3.778 9.516-12.568 5.739-19.396l-22.665-40.899-104.173 57.825zM434.706 793.062l29.131 52.522 104.245-57.753-29.131-52.522-104.245 57.753zM388.94 710.393l28.695 51.723 104.245-57.753-28.695-51.723-104.245 57.753zM353.925 618.788c-6.829 3.778-9.008 12.277-5.23 19.033l23.101 41.698 104.245-57.753-23.101-41.698c-3.778-6.829-12.713-9.153-19.469-5.376l-79.546 44.095zM147.106 472.772l10.679 6.756c-5.23-11.986 0-26.515 12.35-33.417l215.174-119.283c2.034-1.090 4.141-1.961 6.247-2.543 6.102 29.131 17.144 58.842 32.763 87.028 15.691 28.331 35.16 53.684 56.808 74.316-1.671 1.526-3.487 2.906-5.521 4.068l-215.101 119.355c-12.35 6.829-27.46 3.56-34.869-7.119v12.64c0.145 23.101-9.008 25.426-20.195 5.23l-73.516-132.722c-11.187-20.195-4.359-26.661 15.183-14.311zM713.299 80.854c3.196-7.264 8.499-12.931 14.965-16.49 9.081-5.085 20.413-5.957 30.656-1.453 53.031 23.101 94.511 59.641 120.009 105.553 22.52 40.608 32.036 86.52 28.331 136.427-1.453 19.106-18.089 33.417-37.121 32.036-19.106-1.453-33.417-18.089-32.036-37.194 2.688-36.177-3.995-69.012-19.832-97.635-18.306-32.981-47.582-58.406-87.028-75.623-17.58-7.628-25.644-28.041-17.943-45.621zM1069.911 283.75c-1.453 19.106-18.089 33.417-37.194 32.036-19.106-1.453-33.417-18.089-32.036-37.194 4.286-57.462-6.393-109.839-31.746-155.605-29.203-52.667-75.768-93.276-138.388-120.518-17.58-7.628-25.571-28.114-17.943-45.621 3.196-7.264 8.499-12.931 14.965-16.49 9.081-5.085 20.413-5.957 30.656-1.453 37.194 16.2 70.465 36.904 98.869 61.53 29.566 25.571 53.902 55.573 72.427 88.99 32.182 57.68 45.694 123.133 40.39 194.325z" />
<glyph unicode="&#xe924;" glyph-name="live01" horiz-adv-x="483" d="M11.515 731.701c58.983-4.084 120.041-0.134 181.568 11.85 61.46 11.917 119.64 31.132 172.798 57.041 0.536 0.268 1.071 0.536 1.607 0.803-21.558 104.978-117.564 174.472-215.378 155.458-97.948-19.014-160.948-119.573-141.398-225.086 0.268 0 0.536-0.067 0.803-0.067zM21.759 693.070c14.997-38.295 40.639-70.565 71.904-91.721l245.84 47.802c21.156 31.333 32.805 70.967 32.337 112.208-52.556-24.437-110.467-43.183-171.459-55.033-60.724-11.783-121.046-16.135-178.623-13.256zM166.772 339.307c34.68-136.444 70.632-279.65 102.5-401.499 53.627-6.36 107.923 4.352 155.257 30.328-16.135 124.929-36.421 271.080-55.368 410.537l-202.39-39.367zM438.656 646.942l-438.656-85.227 44.254-227.63 438.656 85.294-44.254 227.563zM34.613 538.349l382.151 74.248 33.006-169.651-382.217-74.248-32.939 169.651zM131.356 507.083l0.469-26.11-15.465 23.165-28.989-5.624 1.339-74.181 24.838 4.82-0.603 34.345 20.152-30.529 24.571 4.753-1.406 74.181zM194.891 463.566l-0.201 11.448 27.65 5.356-0.335 18.545-27.65-5.356v5.691l29.994 5.825-0.536 19.951-56.171-10.913 1.339-74.181 56.171 10.913-0.268 18.545zM304.689 534.868l-0.603-3.281-0.536-2.879c-0.067-0.736-0.335-1.54-0.469-2.276-0.803-4.352-1.607-8.637-2.611-13.055-0.067-0.937-0.268-2.075-0.669-3.080l-7.632 27.985-25.307-4.887c-1.406-7.431-4.017-17.273-5.423-24.771-0.669-2.075-0.937-3.883-1.607-5.892l-6.628 27.985-27.449-5.356 20.688-70.431 26.847 5.222 1.54 7.298c0.268 0.736 0.469 1.54 0.536 2.142 0.669 1.875 0.803 3.548 1.205 5.356 0.536 2.142 1.071 4.285 1.54 6.494l1.942 7.632 7.967-26.044 26.78 5.222 17.809 77.93-26.78-5.222-1.138-6.092zM383.356 526.767c-4.017 0.736-7.967 0.736-12.051 0.87-0.067 0.067-0.335 0.201-0.603 0.134h-0.134l-1.54-0.067c-2.611 0.067-4.486 0.402-5.49 1.004-0.335 0.268-0.603 0.87-0.669 2.008 0 1.339 0.669 2.678 1.741 3.281 1.942 1.272 3.682 1.942 5.959 2.343 3.147 0.603 6.226 0.803 9.708 0.134 2.879-0.669 6.159-2.812 9.172-3.615l8.235 1.607-0.268 19.616c-8.503 1.942-18.813 2.008-27.985 0.201-9.708-1.875-17.474-5.825-23.566-11.181-6.494-5.825-9.708-12.252-9.574-19.215 0.201-10.578 5.691-17.474 18.21-17.876h-0.067c2.209-1.004 5.088-1.004 7.766-1.004l1.004-0.335 1.808-0.067 2.745 0.134 2.611 0.134h-0.067c2.209-1.004 3.883-1.272 3.95-3.347 0.067-2.008-0.803-3.214-1.875-3.883-0.603-0.536-1.473-1.071-2.745-1.406-1.54-0.402-2.343-0.669-3.147-0.87-3.214-0.603-6.628-0.803-10.578 0-3.481 0.669-7.364 2.41-11.381 4.486l-8.168-1.607 0.335-20.42c8.77-1.875 18.076-2.946 29.927-0.669 10.712 2.075 18.88 5.825 25.039 11.783 6.36 6.159 9.507 12.854 9.373 20.219-0.335 10.712-6.025 15.8-17.675 17.608z" />
<glyph unicode="&#xe925;" glyph-name="reporter01" horiz-adv-x="834" d="M782.082 306.208c-25.322 32.751-65.566 38.048-101.289 40.438-12.597 0.84-26.42 0.581-41.084 0.323-26.743-0.517-54.391-0.969-74.093 5.362-7.945 2.584-13.436 8.527-16.731 18.152-3.036 8.914-4.005 20.477-2.778 32.751 3.165 2.778 6.266 5.685 9.302 8.721 16.020 16.020 28.875 34.366 38.242 54.262 78.615 13.695 119.699 33.978 124.802 61.497 4.393 23.643-18.023 45.089-39.34 59.236v69.313c0 4.393-1.292 8.462-3.553 12.209-0.646 12.79-1.809 27.131-3.811 42.441-9.754 73.77-35.141 134.88-73.383 176.868-43.733 47.931-103.937 72.22-178.871 72.22-74.998 0-135.203-24.289-179.129-72.285-38.371-41.988-64.016-103.098-74.029-176.803-1.938-14.47-3.747-28.035-4.457-40.244-3.488-4.522-6.072-9.819-6.072-15.503v-94.054c0-16.731 18.798-28.94 40.503-28.94h1.55c11.563 0 21.899 3.23 29.133 9.173 1.744-48.707 21.511-94.506 56.2-129.195 1.55-1.55 3.165-3.23 4.78-4.716-0.129-1.163-0.194-2.39-0.065-3.617 1.357-12.467 0.388-24.353-2.713-33.332-3.294-9.625-8.785-15.568-16.731-18.152-19.702-6.395-47.35-5.878-74.093-5.426-14.664 0.258-28.488 0.517-41.084-0.323-35.722-2.39-75.967-7.687-101.289-40.438-43.926-56.781-64.275-164.207-44.379-234.554 0.452-1.68 1.227-3.23 2.261-4.586 1.034-1.421 25.387-34.43 87.982-66.858 36.045-18.733 77.646-33.591 123.769-44.249 57.169-13.178 121.443-19.896 191.015-19.896 1.55 0 3.036 0.258 4.457 0.711 1.421-0.452 2.907-0.711 4.457-0.711 69.572 0 133.846 6.718 191.015 19.896 46.058 10.659 87.723 25.516 123.769 44.249 62.53 32.428 86.948 65.502 87.982 66.858 1.034 1.421 1.744 2.971 2.261 4.586 19.767 70.411-0.517 177.837-44.508 234.618zM584.414 694.117v-15.051c-2.39 2.003-2.132 3.424-3.488 5.168-4.974 6.331-13.049 8.979-21.769 8.979h-279.255c-8.721 0-17.183-2.907-22.157-9.237-2.003-2.519-2.455-4.909-4.845-7.945v35.722c183.522-11.757 199.219 53.874 199.219 53.874 28.617-38.694 95.346-58.202 132.813-66.471-0.646-1.55-0.517-3.294-0.517-5.039zM567.102 665.887l-11.563-49.094c-1.55-6.654-9.173-12.403-16.795-12.403h-70.411c-7.687 0-15.245 5.878-16.795 12.532l-11.563 48.9v0.129c-0.388 1.68-0.388 3.165 0 4.651 1.098 4.263 5.362 7.17 11.046 7.17h105.1c7.558 0 12.532-5.232 10.982-11.886zM399.148 665.694v0l-11.628-49.030c-1.55-6.654-9.173-12.274-16.795-12.274h-70.411c-7.687 0-15.245 5.62-16.795 12.274l-11.563 48.771c-1.615 6.654 3.424 12.338 11.046 12.338h105.1c5.685 0 9.948-3.036 11.046-7.364 0.388-1.421 0.388-2.971 0-4.716zM679.114 565.438v3.424c14.211-11.563 27.519-25.645 25.128-38.5-2.326-12.661-20.93-32.686-103.937-48.254 7.235 19.767 11.175 40.632 11.563 62.207 6.912-5.232 16.408-8.656 26.937-8.656h1.55c21.059 0.065 38.759 13.565 38.759 29.779zM226.867 713.948v-38.242c-8.268 6.072-17.441 10.4-28.94 10.4h-0.388c4.974 54.456 20.865 127.968 67.827 179.258 37.208 40.567 89.080 61.045 154.13 61.045s116.792-20.671 153.807-61.238c46.833-51.29 62.401-125.061 67.181-179.323-0.065 0-0.129 0.258-0.194 0.258h-1.55c-10.4 0-18.798-3.682-27.131-8.785v16.86c0 0 7.106 197.087-192.759 197.087-199.865-0.065-191.984-177.32-191.984-177.32zM252.899 548.062v114.273l12.597-50.451c1.615-6.847 6.266-13.049 12.532-17.571 5.878-4.199 13.242-6.46 20.219-6.46h74.61c6.977 0 14.082 2.261 19.961 6.524 6.266 4.522 10.594 11.046 12.209 17.894l7.106 30.102h14.728l7.106-29.844c1.615-6.847 6.008-13.372 12.209-17.829 5.878-4.199 12.984-6.783 19.961-6.783h74.61c6.977 0 14.082 2.519 19.961 6.718 6.266 4.522 10.788 10.852 12.403 17.7l11.24 46.316v-110.591c0-25.516-6.008-49.675-16.343-71.251-22.286-3.23-48.319-6.008-78.292-8.527-2.519 6.912-8.204 11.757-14.664 11.757h-32.105c-8.85 0-16.085-9.044-16.085-20.154s7.17-20.154 16.085-20.154h32.105c7.17 0 13.242 5.814 15.31 13.953 24.999 2.067 47.931 4.457 68.732 7.235-29.133-46.833-81.587-78.098-140.693-78.098-90.953 0.129-165.499 74.158-165.499 165.24zM799.071 82.378c-2.455-2.907-7.816-8.85-16.666-16.602-11.628-10.142-31.782-25.451-61.82-40.761-33.849-17.312-73.060-31.071-116.534-40.955-39.792-9.044-83.395-14.664-129.841-17.118l-32.428 295.34h-0.517l23.643 73.9c-15.31-8.204-31.201-12.274-47.35-12.274-15.568 0-30.878 3.682-45.67 11.305l23.32-72.995h-0.258l-32.493-295.663c-47.415 2.39-91.922 8.075-132.425 17.312-43.474 9.883-82.685 23.707-116.534 41.019-30.038 15.31-50.192 30.684-61.82 40.826-8.85 7.752-14.276 13.759-16.666 16.602-7.493 28.81-7.687 67.117-0.452 105.682 7.493 40.050 22.286 76.613 40.567 100.255 17.894 23.126 49.417 27.131 80.101 29.133 11.369 0.775 24.612 0.517 38.565 0.258 29.133-0.517 59.301-1.098 83.654 6.783 16.86 5.426 29.069 18.023 35.399 36.433 2.713 7.945 4.070 16.085 4.651 23.707 30.232-18.927 65.244-29.004 101.741-29.004 34.818 0 68.215 9.173 97.478 26.42 0.646-6.847 2.003-14.018 4.393-21.059 6.331-18.41 18.604-31.007 35.399-36.433 24.353-7.881 54.52-7.364 83.654-6.783 14.018 0.258 27.196 0.517 38.629-0.258 30.684-2.067 62.207-6.008 80.101-29.133 18.281-23.643 33.074-60.205 40.567-100.255 7.3-38.629 7.106-76.871-0.388-105.682zM559.285 144.521c-3.424 6.524-6.654 13.049-9.819 19.573-7.235 0.711-14.405 1.55-21.64 2.519-2.39-17.441-4.845-34.883-7.235-52.259 6.783-0.904 13.501-1.744 20.284-2.455 0.84 8.139 1.68 16.343 2.519 24.482 4.263-8.721 8.785-17.312 13.565-25.904 6.718-0.517 13.436-0.904 20.154-1.163 0.711 17.571 1.421 35.141 2.132 52.712-6.201 0.258-12.403 0.581-18.604 1.098-0.452-6.201-0.904-12.403-1.357-18.604zM607.798 122.235c-0.065 2.778-0.065 5.491-0.129 8.268 7.3 0.065 14.599 0.323 21.834 0.711-0.258 4.393-0.452 8.85-0.711 13.242-7.106-0.388-14.211-0.581-21.317-0.711 0 1.486-0.065 2.971-0.065 4.522 7.687 0.065 15.31 0.323 22.932 0.775-0.258 4.457-0.452 8.914-0.711 13.307-13.953-0.775-27.971-0.969-41.924-0.646-0.452-17.571-0.84-35.206-1.292-52.776 15.374-0.388 30.748-0.129 46.123 0.711-0.258 4.457-0.517 8.914-0.711 13.372-8.010-0.452-16.020-0.711-24.030-0.775zM690.289 165.063c-0.065-0.775-0.129-1.486-0.129-2.261-0.065-0.646-0.065-1.357-0.129-2.003 0-0.517-0.129-1.034-0.129-1.55-0.194-3.036-0.388-6.072-0.711-9.173 0-0.646 0.065-1.615-0.194-2.326-2.907 6.589-5.749 13.178-8.527 19.831-6.201-0.969-12.467-1.809-18.733-2.519-0.581-5.168-1.938-11.886-2.584-17.183-0.388-1.421-0.452-2.778-0.84-4.199-2.261 6.718-4.522 13.501-6.654 20.284-6.783-0.646-13.63-1.163-20.413-1.55 5.814-17.312 12.080-34.495 18.862-51.549 7.3 0.646 14.664 1.357 21.899 2.261 0.258 1.68 0.517 3.359 0.775 5.039 0.194 0.517 0.258 1.034 0.323 1.486 0.388 1.292 0.388 2.455 0.581 3.747 0.258 1.486 0.581 2.971 0.775 4.586 0.323 1.809 0.646 3.617 0.969 5.426 2.842-6.266 5.685-12.467 8.656-18.669 7.235 1.034 14.47 2.196 21.705 3.553 2.003 18.281 3.553 36.498 4.586 54.714-6.524-1.357-13.049-2.648-19.638-3.747-0.258-1.421-0.388-2.778-0.452-4.199zM752.303 162.156c-3.294 0.194-6.395-0.129-9.56-0.323-0.065 0.065-0.258 0.065-0.452 0 0 0-0.065 0-0.065 0s-0.065 0-0.065 0c-0.388-0.065-0.84-0.065-1.227-0.129-2.067-0.129-3.617 0.065-4.457 0.388-0.323 0.194-0.646 0.581-0.84 1.357-0.258 0.904 0.065 1.873 0.775 2.39 1.292 1.034 2.519 1.55 4.199 2.003 2.326 0.646 4.78 0.775 7.558 0.581 2.326-0.258 4.909-0.775 7.881-1.938 2.067 0.581 4.070 1.227 6.137 1.873-1.421 4.522-2.778 9.044-4.199 13.63-6.847 0.581-14.664-0.065-21.317-1.809-7.041-1.873-12.274-4.845-16.149-8.785-4.070-4.263-5.62-9.108-4.522-14.018 1.55-7.364 6.589-11.498 17.183-12.080 0 0-0.065 0-0.065 0 1.68-0.129 4.134-0.129 6.266 0.065 0.258 0 0.517 0 0.84 0 0.452 0.065 0.969 0.065 1.421 0.129 0.711 0.065 1.486 0.065 2.196 0.129s1.421 0.065 2.132 0.129c0 0-0.065 0-0.065 0 1.68 0.065 3.294-0.388 3.682-1.873 0.388-1.421-0.129-2.196-0.904-2.713-0.388-0.388-1.034-0.775-2.003-1.098-1.227-0.388-1.809-0.646-2.39-0.775-2.519-0.646-5.297-0.904-8.656-0.581-2.907 0.258-6.266 1.098-9.883 2.648-2.132-0.452-4.199-0.969-6.331-1.421 1.034-4.78 2.067-9.56 3.101-14.341 7.493-0.969 15.374-1.357 24.87 1.098 8.527 2.196 14.664 5.555 18.604 10.271 4.070 4.845 5.297 9.819 3.682 14.857-2.39 7.17-7.945 10.077-17.377 10.336z" />
<glyph unicode="&#xe926;" glyph-name="circle" d="M240.006 568c-66.171 0-120.006-53.829-120.006-120.006s53.829-119.994 120.006-119.994c66.159 0 119.994 53.826 119.994 119.994 0.002 66.171-53.826 120.006-119.994 120.006z" />
<glyph unicode="&#xe927;" glyph-name="circle1" d="M512.029 959.999c-282.332 0-512.032-229.661-512.032-512.028s229.666-511.968 512.032-511.968c282.268 0 511.968 229.661 511.968 511.968 0.013 282.332-229.661 512.032-511.968 512.032z" />
<glyph unicode="&#xe928;" glyph-name="circle02" d="M240.006 568c-66.171 0-120.006-53.828-120.006-120.006s53.829-119.994 120.006-119.994c66.159 0 119.994 53.826 119.994 119.994 0.002 66.171-53.826 120.006-119.994 120.006zM240.005 345.5c-56.526 0-102.505 45.969-102.505 102.495 0 56.527 45.984 102.505 102.505 102.505 56.518 0 102.497-45.984 102.495-102.505 0-56.519-45.984-102.495-102.495-102.495z" />
<glyph unicode="&#xe9d7;" glyph-name="star-empty" d="M1024 562.95l-353.78 51.408-158.22 320.582-158.216-320.582-353.784-51.408 256-249.538-60.432-352.352 316.432 166.358 316.432-166.358-60.434 352.352 256.002 249.538zM512 206.502l-223.462-117.48 42.676 248.83-180.786 176.222 249.84 36.304 111.732 226.396 111.736-226.396 249.836-36.304-180.788-176.222 42.678-248.83-223.462 117.48z" />
<glyph unicode="&#xe9d8;" glyph-name="star-half" d="M1024 562.95l-353.78 51.408-158.22 320.582-158.216-320.582-353.784-51.408 256-249.538-60.432-352.352 316.432 166.358 316.432-166.358-60.434 352.352 256.002 249.538zM512 206.502l-0.942-0.496 0.942 570.768 111.736-226.396 249.836-36.304-180.788-176.222 42.678-248.83-223.462 117.48z" />
<glyph unicode="&#xe9d9;" glyph-name="star-full" d="M1024 562.95l-353.78 51.408-158.22 320.582-158.216-320.582-353.784-51.408 256-249.538-60.432-352.352 316.432 166.358 316.432-166.358-60.434 352.352 256.002 249.538z" />
<glyph unicode="&#xe9da;" glyph-name="heart" d="M755.188 896c-107.63 0-200.258-87.554-243.164-179-42.938 91.444-135.578 179-243.216 179-148.382 0-268.808-120.44-268.808-268.832 0-301.846 304.5-380.994 512.022-679.418 196.154 296.576 511.978 387.206 511.978 679.418 0 148.392-120.43 268.832-268.812 268.832z" />
<glyph unicode="&#xea10;" glyph-name="checkmark" d="M864 832l-480-480-224 224-160-160 384-384 640 640z" />
</font>
</defs>
</svg>
