<?xml version="1.0" encoding="utf-8"?>
<!-- Generator: Adobe Illustrator 26.0.1, SVG Export Plug-In . SVG Version: 6.00 Build 0)  -->
<svg version="1.1" id="レイヤー_1" xmlns="http://www.w3.org/2000/svg" xmlns:xlink="http://www.w3.org/1999/xlink" x="0px"
	 y="0px" viewBox="0 0 193.49 51.32" style="enable-background:new 0 0 193.49 51.32;" xml:space="preserve">
<g>
	<g>
		<path d="M28.3,32.25h-8.68L10.48,18.1l-2.93,3.2v10.94H0v-32h7.55v14.48H7.7c0.82-1.25,1.69-2.45,2.52-3.66L18.7,0.25h9.04
			L15.82,13.94L28.3,32.25z"/>
		<path d="M70.01,32.25h-7.96l-2.83-8.45H48.64l-2.72,8.45h-7.7l11.2-32h9.55L70.01,32.25z M58.14,19.14l-2.36-7.28
			c-0.62-2-1.28-4.58-1.8-6.53h-0.15c-0.51,2-1.18,4.62-1.75,6.49l-2.36,7.32H58.14z"/>
		<path d="M102.68,17.14c2.77,0.87,4.31,3.04,5.24,6.28c1.13,3.79,2.16,7.61,2.93,8.82h-7.81c-0.56-0.92-1.54-3.7-2.47-7.57
			c-1.03-4.12-2.62-5.41-6.21-5.41h-2.57v12.98h-7.55V0.67C86.86,0.29,90.56,0,94.41,0c4.98,0,15.05,0.5,15.05,9.07
			c0,3.91-3.08,6.78-6.78,7.95V17.14z M94.92,14.69c4.31,0,6.93-2.04,6.93-5.08c0-4.12-3.8-4.91-6.57-4.91
			c-1.69,0-2.88,0.08-3.49,0.25v9.74H94.92z"/>
		<path d="M151.78,0.25l-11.71,18.77v13.23h-7.6V19.22l-11.2-18.97h8.47l3.9,7.87c1.13,2.29,2.05,4.29,2.98,6.49h0.1
			c0.77-2.12,1.75-4.2,2.88-6.53l3.8-7.82H151.78z"/>
		<path d="M193.49,32.25h-7.6l-8.47-13.23c-2.11-3.29-4.42-7.24-6.06-10.74h-0.21c0.31,3.95,0.46,8.45,0.46,14.15v9.82h-6.88v-32
			h8.22l8.32,12.98c2.11,3.2,4.31,7.12,5.91,10.44h0.1c-0.46-4.08-0.67-8.61-0.67-13.81V0.25h6.88V32.25z"/>
	</g>
	<g>
		<path d="M15.75,42.59c0.25,0,0.38,0.11,0.38,0.34c0,0.23-0.13,0.34-0.38,0.34h-4.8c-0.14,0-0.21,0.07-0.21,0.21v2.89h4.38
			c0.26,0,0.38,0.11,0.38,0.34s-0.13,0.34-0.38,0.34h-4.38v3.78c0,0.31-0.14,0.47-0.42,0.47c-0.28,0-0.42-0.16-0.42-0.47v-7.48
			c0-0.51,0.25-0.77,0.76-0.77H15.75z"/>
		<path d="M22.4,42.98c0.11-0.25,0.31-0.38,0.59-0.38c0.28,0,0.48,0.13,0.6,0.38l3.65,7.69c0.11,0.28,0.06,0.48-0.17,0.59
			c-0.25,0.08-0.45,0-0.6-0.25l-0.98-2.08h-5.01l-0.98,2.08c-0.14,0.25-0.34,0.34-0.6,0.25c-0.23-0.11-0.28-0.31-0.17-0.59
			L22.4,42.98z M25.21,48.25L23,43.53l-2.21,4.72H25.21z"/>
		<path d="M36.19,43.49c0.31,0.34,0.5,0.62,0.55,0.85c0.06,0.28-0.03,0.47-0.26,0.55c-0.23,0.06-0.4-0.01-0.51-0.21
			c-0.03-0.14-0.2-0.4-0.51-0.77c-0.37-0.42-1.05-0.64-2.04-0.64c-0.99,0-1.67,0.19-2.04,0.55c-0.34,0.34-0.51,0.67-0.51,0.98
			c0,0.31,0.1,0.57,0.3,0.77c0.31,0.31,0.75,0.52,1.32,0.64l2.38,0.47c0.68,0.14,1.22,0.41,1.61,0.81c0.43,0.42,0.64,0.93,0.64,1.53
			c0,0.57-0.2,1.05-0.6,1.44c-0.57,0.57-1.54,0.85-2.93,0.85c-1.45,0-2.47-0.35-3.06-1.06c-0.31-0.37-0.54-0.72-0.68-1.06
			c-0.11-0.25-0.04-0.44,0.21-0.55c0.28-0.08,0.48,0,0.6,0.25c0.14,0.37,0.33,0.68,0.55,0.94c0.48,0.54,1.27,0.81,2.38,0.81
			c1.08,0,1.84-0.23,2.29-0.68c0.25-0.25,0.38-0.57,0.38-0.93s-0.13-0.68-0.38-0.94c-0.34-0.34-0.74-0.55-1.19-0.64l-2.34-0.47
			c-0.77-0.14-1.36-0.42-1.79-0.85c-0.37-0.37-0.55-0.81-0.55-1.32c0-0.48,0.24-0.96,0.72-1.44c0.51-0.51,1.39-0.77,2.64-0.77
			C34.72,42.59,35.65,42.89,36.19,43.49z"/>
		<path d="M40.2,43.06c0-0.31,0.14-0.47,0.42-0.47c0.28,0,0.42,0.16,0.42,0.47v3.31h5.78v-3.31c0-0.31,0.14-0.47,0.42-0.47
			c0.28,0,0.43,0.16,0.43,0.47v7.78c0,0.31-0.14,0.47-0.43,0.47c-0.28,0-0.42-0.16-0.42-0.47v-3.78h-5.78v3.78
			c0,0.31-0.14,0.47-0.42,0.47c-0.28,0-0.42-0.16-0.42-0.47V43.06z"/>
		<path d="M51.19,43.06c0-0.31,0.14-0.47,0.42-0.47c0.28,0,0.42,0.16,0.42,0.47v7.78c0,0.31-0.14,0.47-0.42,0.47
			c-0.28,0-0.42-0.16-0.42-0.47V43.06z"/>
		<path d="M63.24,43.74c0.85,0.85,1.27,1.91,1.27,3.19c0,1.3-0.42,2.38-1.27,3.23c-0.77,0.76-1.77,1.15-3.02,1.15
			c-1.25,0-2.25-0.38-3.02-1.15c-0.85-0.85-1.27-1.93-1.27-3.23c0-1.27,0.43-2.34,1.27-3.19c0.77-0.76,1.77-1.15,3.02-1.15
			C61.47,42.59,62.48,42.98,63.24,43.74z M57.84,44.21c-0.65,0.65-0.98,1.56-0.98,2.72c0,1.19,0.33,2.11,0.98,2.76
			c0.62,0.62,1.42,0.93,2.38,0.93c0.96,0,1.76-0.31,2.38-0.93c0.65-0.65,0.98-1.57,0.98-2.76c0-1.16-0.33-2.07-0.98-2.72
			c-0.62-0.62-1.42-0.94-2.38-0.94C59.26,43.27,58.47,43.58,57.84,44.21z"/>
		<path d="M67.55,43.15c0-0.37,0.2-0.55,0.59-0.55c0.2,0,0.35,0.03,0.47,0.08c0.17,0.08,0.31,0.2,0.42,0.34l5.14,6.8v-6.76
			c0-0.31,0.14-0.47,0.42-0.47c0.28,0,0.43,0.16,0.43,0.47v7.78c0,0.31-0.14,0.47-0.43,0.47c-0.17,0-0.33-0.08-0.47-0.25l-5.74-7.61
			v7.39c0,0.31-0.14,0.47-0.42,0.47c-0.28,0-0.42-0.16-0.42-0.47V43.15z"/>
		<path d="M86.19,42.98c0.11-0.25,0.31-0.38,0.59-0.38c0.28,0,0.48,0.13,0.6,0.38l3.65,7.69c0.11,0.28,0.06,0.48-0.17,0.59
			c-0.25,0.08-0.45,0-0.6-0.25l-0.98-2.08h-5.01l-0.98,2.08c-0.14,0.25-0.34,0.34-0.6,0.25c-0.23-0.11-0.28-0.31-0.17-0.59
			L86.19,42.98z M89,48.25l-2.21-4.72l-2.21,4.72H89z"/>
		<path d="M100.49,43.7c0.37,0.37,0.59,0.75,0.68,1.15c0.06,0.28-0.04,0.47-0.3,0.55c-0.25,0.06-0.44-0.04-0.55-0.3
			c-0.11-0.4-0.31-0.74-0.6-1.02c-0.54-0.54-1.26-0.81-2.17-0.81c-0.85,0-1.63,0.36-2.34,1.06c-0.6,0.6-0.89,1.46-0.89,2.59
			c0,1.16,0.3,2.04,0.89,2.63c0.71,0.71,1.49,1.06,2.34,1.06c0.88,0,1.63-0.31,2.25-0.93c0.31-0.31,0.54-0.72,0.68-1.23
			c0.06-0.25,0.24-0.34,0.55-0.25c0.26,0.11,0.34,0.3,0.26,0.55c-0.2,0.59-0.48,1.08-0.85,1.44c-0.74,0.74-1.69,1.11-2.85,1.11
			c-1.22,0-2.21-0.38-2.98-1.15c-0.82-0.82-1.23-1.9-1.23-3.23c0-1.27,0.4-2.31,1.19-3.1c0.82-0.82,1.81-1.23,2.98-1.23
			C98.8,42.59,99.78,42.96,100.49,43.7z"/>
		<path d="M110.91,43.7c0.37,0.37,0.59,0.75,0.68,1.15c0.06,0.28-0.04,0.47-0.3,0.55c-0.25,0.06-0.44-0.04-0.55-0.3
			c-0.11-0.4-0.31-0.74-0.6-1.02c-0.54-0.54-1.26-0.81-2.17-0.81c-0.85,0-1.63,0.36-2.34,1.06c-0.6,0.6-0.89,1.46-0.89,2.59
			c0,1.16,0.3,2.04,0.89,2.63c0.71,0.71,1.49,1.06,2.34,1.06c0.88,0,1.63-0.31,2.25-0.93c0.31-0.31,0.54-0.72,0.68-1.23
			c0.06-0.25,0.24-0.34,0.55-0.25c0.26,0.11,0.34,0.3,0.26,0.55c-0.2,0.59-0.48,1.08-0.85,1.44c-0.74,0.74-1.69,1.11-2.85,1.11
			c-1.22,0-2.21-0.38-2.98-1.15c-0.82-0.82-1.23-1.9-1.23-3.23c0-1.27,0.4-2.31,1.19-3.1c0.82-0.82,1.81-1.23,2.98-1.23
			C109.23,42.59,110.2,42.96,110.91,43.7z"/>
		<path d="M120.91,42.59c0.25,0,0.38,0.11,0.38,0.34c0,0.23-0.13,0.34-0.38,0.34h-5.18c-0.14,0-0.21,0.07-0.21,0.21v2.8h4.72
			c0.25,0,0.38,0.11,0.38,0.34s-0.13,0.34-0.38,0.34h-4.72v3.44c0,0.14,0.07,0.21,0.21,0.21h5.18c0.25,0,0.38,0.11,0.38,0.34
			c0,0.23-0.13,0.34-0.38,0.34h-5.48c-0.51,0-0.76-0.25-0.76-0.77v-7.18c0-0.51,0.25-0.77,0.76-0.77H120.91z"/>
		<path d="M130.11,43.49c0.31,0.34,0.5,0.62,0.55,0.85c0.06,0.28-0.03,0.47-0.25,0.55c-0.23,0.06-0.4-0.01-0.51-0.21
			c-0.03-0.14-0.2-0.4-0.51-0.77c-0.37-0.42-1.05-0.64-2.04-0.64c-0.99,0-1.67,0.19-2.04,0.55c-0.34,0.34-0.51,0.67-0.51,0.98
			c0,0.31,0.1,0.57,0.3,0.77c0.31,0.31,0.75,0.52,1.32,0.64l2.38,0.47c0.68,0.14,1.22,0.41,1.62,0.81c0.42,0.42,0.64,0.93,0.64,1.53
			c0,0.57-0.2,1.05-0.59,1.44c-0.57,0.57-1.54,0.85-2.93,0.85c-1.45,0-2.46-0.35-3.06-1.06c-0.31-0.37-0.54-0.72-0.68-1.06
			c-0.11-0.25-0.04-0.44,0.21-0.55c0.28-0.08,0.48,0,0.59,0.25c0.14,0.37,0.33,0.68,0.55,0.94c0.48,0.54,1.27,0.81,2.38,0.81
			c1.08,0,1.84-0.23,2.29-0.68c0.25-0.25,0.38-0.57,0.38-0.93s-0.13-0.68-0.38-0.94c-0.34-0.34-0.74-0.55-1.19-0.64l-2.34-0.47
			c-0.77-0.14-1.36-0.42-1.79-0.85c-0.37-0.37-0.55-0.81-0.55-1.32c0-0.48,0.24-0.96,0.72-1.44c0.51-0.51,1.39-0.77,2.63-0.77
			C128.63,42.59,129.57,42.89,130.11,43.49z"/>
		<path d="M139.85,43.49c0.31,0.34,0.5,0.62,0.55,0.85c0.06,0.28-0.03,0.47-0.25,0.55c-0.23,0.06-0.4-0.01-0.51-0.21
			c-0.03-0.14-0.2-0.4-0.51-0.77c-0.37-0.42-1.05-0.64-2.04-0.64c-0.99,0-1.67,0.19-2.04,0.55c-0.34,0.34-0.51,0.67-0.51,0.98
			c0,0.31,0.1,0.57,0.3,0.77c0.31,0.31,0.75,0.52,1.32,0.64l2.38,0.47c0.68,0.14,1.22,0.41,1.62,0.81c0.42,0.42,0.64,0.93,0.64,1.53
			c0,0.57-0.2,1.05-0.59,1.44c-0.57,0.57-1.54,0.85-2.93,0.85c-1.45,0-2.46-0.35-3.06-1.06c-0.31-0.37-0.54-0.72-0.68-1.06
			c-0.11-0.25-0.04-0.44,0.21-0.55c0.28-0.08,0.48,0,0.59,0.25c0.14,0.37,0.33,0.68,0.55,0.94c0.48,0.54,1.27,0.81,2.38,0.81
			c1.08,0,1.84-0.23,2.29-0.68c0.25-0.25,0.38-0.57,0.38-0.93s-0.13-0.68-0.38-0.94c-0.34-0.34-0.74-0.55-1.19-0.64l-2.34-0.47
			c-0.77-0.14-1.36-0.42-1.79-0.85c-0.37-0.37-0.55-0.81-0.55-1.32c0-0.48,0.24-0.96,0.72-1.44c0.51-0.51,1.39-0.77,2.63-0.77
			C138.38,42.59,139.31,42.89,139.85,43.49z"/>
		<path d="M150.53,43.74c0.85,0.85,1.28,1.91,1.28,3.19c0,1.3-0.43,2.38-1.28,3.23c-0.76,0.76-1.77,1.15-3.02,1.15
			c-1.25,0-2.25-0.38-3.02-1.15c-0.85-0.85-1.27-1.93-1.27-3.23c0-1.27,0.42-2.34,1.27-3.19c0.77-0.76,1.77-1.15,3.02-1.15
			C148.76,42.59,149.77,42.98,150.53,43.74z M145.13,44.21c-0.65,0.65-0.98,1.56-0.98,2.72c0,1.19,0.33,2.11,0.98,2.76
			c0.62,0.62,1.42,0.93,2.38,0.93c0.96,0,1.76-0.31,2.38-0.93c0.65-0.65,0.98-1.57,0.98-2.76c0-1.16-0.33-2.07-0.98-2.72
			c-0.62-0.62-1.42-0.94-2.38-0.94C146.55,43.27,145.76,43.58,145.13,44.21z"/>
		<path d="M158.79,42.59c1.05,0,1.84,0.27,2.38,0.81c0.37,0.37,0.55,0.84,0.55,1.4c0,0.57-0.16,1.01-0.47,1.32
			c-0.34,0.34-0.85,0.57-1.53,0.68c0.45,0.11,0.82,0.31,1.1,0.59c0.31,0.31,0.5,0.79,0.55,1.45c0.03,0.4,0.06,0.76,0.08,1.1
			c0.03,0.28,0.1,0.52,0.21,0.72c0.11,0.28,0.04,0.5-0.21,0.64c-0.34,0.06-0.55-0.06-0.64-0.34c-0.06-0.23-0.11-0.51-0.17-0.85
			c-0.03-0.37-0.06-0.78-0.08-1.23c-0.08-0.54-0.24-0.92-0.47-1.15c-0.37-0.37-0.98-0.55-1.83-0.55h-2.76v3.66
			c0,0.31-0.14,0.47-0.42,0.47s-0.42-0.16-0.42-0.47v-7.48c0-0.51,0.25-0.77,0.76-0.77H158.79z M155.73,43.27
			c-0.14,0-0.21,0.07-0.21,0.21v3.02h3.36c0.65,0,1.16-0.18,1.53-0.55c0.25-0.25,0.38-0.61,0.38-1.06c0-0.45-0.13-0.81-0.38-1.06
			c-0.37-0.37-0.85-0.55-1.45-0.55H155.73z"/>
		<path d="M164.58,43.06c0-0.31,0.14-0.47,0.42-0.47s0.42,0.16,0.42,0.47v7.78c0,0.31-0.14,0.47-0.42,0.47s-0.42-0.16-0.42-0.47
			V43.06z"/>
		<path d="M174.97,42.59c0.25,0,0.38,0.11,0.38,0.34c0,0.23-0.13,0.34-0.38,0.34h-5.18c-0.14,0-0.21,0.07-0.21,0.21v2.8h4.72
			c0.25,0,0.38,0.11,0.38,0.34s-0.13,0.34-0.38,0.34h-4.72v3.44c0,0.14,0.07,0.21,0.21,0.21h5.18c0.25,0,0.38,0.11,0.38,0.34
			c0,0.23-0.13,0.34-0.38,0.34h-5.48c-0.51,0-0.76-0.25-0.76-0.77v-7.18c0-0.51,0.25-0.77,0.76-0.77H174.97z"/>
		<path d="M184.16,43.49c0.31,0.34,0.5,0.62,0.55,0.85c0.06,0.28-0.03,0.47-0.25,0.55c-0.23,0.06-0.4-0.01-0.51-0.21
			c-0.03-0.14-0.2-0.4-0.51-0.77c-0.37-0.42-1.05-0.64-2.04-0.64c-0.99,0-1.67,0.19-2.04,0.55c-0.34,0.34-0.51,0.67-0.51,0.98
			c0,0.31,0.1,0.57,0.3,0.77c0.31,0.31,0.75,0.52,1.32,0.64l2.38,0.47c0.68,0.14,1.22,0.41,1.62,0.81c0.42,0.42,0.64,0.93,0.64,1.53
			c0,0.57-0.2,1.05-0.59,1.44c-0.57,0.57-1.54,0.85-2.93,0.85c-1.45,0-2.46-0.35-3.06-1.06c-0.31-0.37-0.54-0.72-0.68-1.06
			c-0.11-0.25-0.04-0.44,0.21-0.55c0.28-0.08,0.48,0,0.59,0.25c0.14,0.37,0.33,0.68,0.55,0.94c0.48,0.54,1.27,0.81,2.38,0.81
			c1.08,0,1.84-0.23,2.29-0.68c0.25-0.25,0.38-0.57,0.38-0.93s-0.13-0.68-0.38-0.94c-0.34-0.34-0.74-0.55-1.19-0.64l-2.34-0.47
			c-0.77-0.14-1.36-0.42-1.79-0.85c-0.37-0.37-0.55-0.81-0.55-1.32c0-0.48,0.24-0.96,0.72-1.44c0.51-0.51,1.39-0.77,2.63-0.77
			C182.69,42.59,183.62,42.89,184.16,43.49z"/>
	</g>
</g>
</svg>
